<?xml version="1.0" encoding="UTF-8"?>
<svg width="32px" height="32px" viewBox="0 0 32 32" version="1.1" xmlns="http://www.w3.org/2000/svg" xmlns:xlink="http://www.w3.org/1999/xlink">
    <!-- Generator: Sketch 49.1 (51147) - http://www.bohemiancoding.com/sketch -->
    <title>Icons/branding-icon-grade</title>
    <desc>Created with Sketch.</desc>
    <defs>
        <linearGradient x1="0%" y1="0%" x2="100%" y2="100%" id="linearGradient-1">
            <stop stop-color="#00F2AA" offset="0%"></stop>
            <stop stop-color="#0083FF" offset="100%"></stop>
        </linearGradient>
    </defs>
    <g id="Icons/branding-icon" stroke="none" stroke-width="1" fill="none" fill-rule="evenodd">
        <path d="M16,3 C8.714844,3 4.398438,6.199219 4.398438,6.199219 L4,6.5 L4,17 C4,21.082031 7.035156,24.28125 9.890625,26.46875 C12.75,28.660156 15.59375,29.914063 15.59375,29.914063 L15.964844,30.078125 L16.34375,29.9375 C16.34375,29.9375 19.210938,28.902344 22.089844,26.808594 C24.964844,24.714844 28,21.457031 28,17 L28,6.5 L27.597656,6.199219 C27.597656,6.199219 23.285156,3 16,3 Z M16,5 C22.214844,5 25.496094,7.234375 26,7.59375 L26,17 C26,20.542969 23.535156,23.285156 20.910156,25.191406 C19.335938,26.335938 17.929688,27.054688 17,27.480469 L17,24 L15,24 L15,27.375 C14.0625,26.882813 12.667969,26.078125 11.109375,24.882813 C8.464844,22.859375 6,20.054688 6,17 L6,7.59375 C6.503906,7.234375 9.785156,5 16,5 Z M11,8 C9.667969,8 8,9 7,11 C8.300781,10.09375 9.40625,9.332031 10.332031,9.332031 C12.125,9.332031 13.019531,11.433594 13.292969,11.707031 C13.683594,12.097656 14.316406,12.097656 14.707031,11.707031 C15.097656,11.316406 15.097656,10.683594 14.707031,10.292969 C14.464844,10.050781 13.292969,8 11,8 Z M21,8 C18.707031,8 17.535156,10.050781 17.292969,10.292969 C16.902344,10.683594 16.902344,11.316406 17.292969,11.707031 C17.683594,12.097656 18.316406,12.097656 18.707031,11.707031 C18.980469,11.433594 20.210938,9 22,9 C22.925781,9 24,10 25,11 C24,8 22.332031,8 21,8 Z M10.5,12 C9.476563,12 8.574219,12.394531 8,13 C8.574219,13.605469 9.476563,14 10.5,14 C11.523438,14 12.425781,13.605469 13,13 C12.425781,12.394531 11.523438,12 10.5,12 Z M21.5,12 C20.476563,12 19.574219,12.394531 19,13 C19.574219,13.605469 20.476563,14 21.5,14 C22.523438,14 23.425781,13.605469 24,13 C23.425781,12.394531 22.523438,12 21.5,12 Z M8,17 L11,22 L15,22 L16,21 L17,22 L21,22 L24,17 L20,20 L19,20 L17,18 L15,18 L13,20 L12,20 L8,17 Z" id="icon" fill="url(#linearGradient-1)" fill-rule="nonzero"></path>
    </g>
</svg>