<?xml version="1.0" encoding="UTF-8"?>
<svg width="32px" height="32px" viewBox="0 0 32 32" version="1.1" xmlns="http://www.w3.org/2000/svg" xmlns:xlink="http://www.w3.org/1999/xlink">
    <!-- Generator: Sketch 49.1 (51147) - http://www.bohemiancoding.com/sketch -->
    <title>Icons/brush-icon</title>
    <desc>Created with Sketch.</desc>
    <defs></defs>
    <g id="Icons/brush-icon" stroke="none" stroke-width="1" fill="none" fill-rule="evenodd">
        <path d="M25.65625,4 C24.820313,4 23.976563,4.335938 23.34375,4.96875 L10.65625,17.46875 L10.03125,18.0625 C9.28125,18.203125 8.566406,18.570313 8,19.1875 C7.167969,20.097656 7.003906,21.210938 6.6875,22.40625 C6.371094,23.601563 5.96875,24.933594 5,26.40625 L4,27.96875 L5.84375,27.96875 C9.757813,27.96875 12.339844,26.097656 13.65625,24.78125 L13.6875,24.75 C14.289063,24.132813 14.625,23.355469 14.75,22.5625 L15.25,22.09375 L27.9375,9.59375 L27.9375,9.5625 C29.203125,8.296875 29.203125,6.234375 27.9375,4.96875 C27.304688,4.335938 26.492188,4 25.65625,4 Z M25.65625,5.96875 C25.96875,5.96875 26.265625,6.109375 26.53125,6.375 C27.066406,6.910156 27.066406,7.621094 26.53125,8.15625 L17.5,17.09375 L15.6875,15.28125 L24.75,6.375 C25.015625,6.109375 25.34375,5.96875 25.65625,5.96875 Z M14.25,16.6875 L16.0625,18.5 L14.5625,19.96875 L12.75,18.15625 L14.25,16.6875 Z M10.8125,20 C11.316406,20.015625 11.863281,20.210938 12.28125,20.59375 C13.058594,21.304688 13.078125,22.546875 12.25,23.375 C11.382813,24.242188 9.84375,25.359375 7.59375,25.78125 C8.074219,24.730469 8.410156,23.75 8.625,22.9375 C8.957031,21.683594 9.203125,20.824219 9.46875,20.53125 C9.816406,20.152344 10.308594,19.984375 10.8125,20 Z" id="icon" fill="#FFFFFF" fill-rule="nonzero"></path>
    </g>
</svg>