<?xml version="1.0" encoding="UTF-8"?>
<svg width="24px" height="25px" viewBox="0 0 24 25" version="1.1" xmlns="http://www.w3.org/2000/svg" xmlns:xlink="http://www.w3.org/1999/xlink">
    <!-- Generator: Sketch 52.4 (67378) - http://www.bohemiancoding.com/sketch -->
    <title>Untitled 3</title>
    <desc>Created with Sketch.</desc>
    <g id="Page-1" stroke="none" stroke-width="1" fill="none" fill-rule="evenodd">
        <g id="building-10">
            <g id="Frames-24px">
                <rect id="Rectangle" x="0" y="0" width="24" height="24.001"></rect>
            </g>
            <g id="Outline" transform="translate(1.000000, 1.000000)" fill="#FFFFFF">
                <g id="Group">
                    <path d="M12.004,2.094 L12.004,0.004 L10.004,0.004 L10.004,2.094 C7.168,2.571 5.004,5.032 5.004,8.004 L17.004,8.004 C17.004,5.032 14.841,2.571 12.004,2.094 Z" id="Path"></path>
                    <path d="M21.004,15.004 L18.004,15.004 L18.004,11.004 C18.004,10.452 17.556,10.004 17.004,10.004 L5.004,10.004 C4.452,10.004 4.004,10.452 4.004,11.004 L4.004,15.004 L1.004,15.004 C0.452,15.004 0.004,15.452 0.004,16.004 L0.004,20.004 C0.004,20.557 0.452,21.004 1.004,21.004 L21.004,21.004 C21.556,21.004 22.004,20.557 22.004,20.004 L22.004,16.004 C22.004,15.452 21.557,15.004 21.004,15.004 Z M4.004,19.004 L2.004,19.004 L2.004,17.004 L4.004,17.004 L4.004,19.004 Z M8.004,19.004 L6.004,19.004 L6.004,17.004 L8.004,17.004 L8.004,19.004 Z M8.004,14.004 L6.004,14.004 L6.004,12.004 L8.004,12.004 L8.004,14.004 Z M12.004,19.004 L10.004,19.004 L10.004,17.004 L12.004,17.004 L12.004,19.004 Z M12.004,14.004 L10.004,14.004 L10.004,12.004 L12.004,12.004 L12.004,14.004 Z M16.004,19.004 L14.004,19.004 L14.004,17.004 L16.004,17.004 L16.004,19.004 Z M16.004,14.004 L14.004,14.004 L14.004,12.004 L16.004,12.004 L16.004,14.004 Z M20.004,19.004 L18.004,19.004 L18.004,17.004 L20.004,17.004 L20.004,19.004 Z" id="Shape" fill-rule="nonzero"></path>
                </g>
            </g>
        </g>
    </g>
</svg>