<?xml version="1.0" encoding="UTF-8"?>
<svg width="20px" height="20px" viewBox="0 0 20 20" version="1.1" xmlns="http://www.w3.org/2000/svg" xmlns:xlink="http://www.w3.org/1999/xlink">
    <!-- Generator: Sketch 48.2 (47327) - http://www.bohemiancoding.com/sketch -->
    <title>Icons/calc-icon</title>
    <desc>Created with Sketch.</desc>
    <defs></defs>
    <g id="Symbols" stroke="none" stroke-width="1" fill="none" fill-rule="evenodd">
        <g id="Icons/calc-icon" fill="#FFFFFF" fill-rule="nonzero">
            <path d="M4.55,0 C3.1488277,0 2,1.12630167 2,2.5 L2,17.5 C2,18.8736983 3.1488277,20 4.55,20 L16.45,20 C17.8511723,20 19,18.8736983 19,17.5 L19,2.5 C19,1.12630167 17.8511723,0 16.45,0 L4.55,0 Z M4.55,1.66666667 L16.45,1.66666667 C16.928125,1.66666667 17.3,2.03125 17.3,2.5 L17.3,17.5 C17.3,17.96875 16.928125,18.3333333 16.45,18.3333333 L4.55,18.3333333 C4.071875,18.3333333 3.7,17.96875 3.7,17.5 L3.7,2.5 C3.7,2.03125 4.071875,1.66666667 4.55,1.66666667 Z M5.4,3.33333333 L5.4,5 L15.6,5 L15.6,3.33333333 L5.4,3.33333333 Z M5.4,8.33333333 L5.4,10 L7.1,10 L7.1,8.33333333 L5.4,8.33333333 Z M8.8,8.33333333 L8.8,10 L10.5,10 L10.5,8.33333333 L8.8,8.33333333 Z M12.2,8.33333333 L12.2,10 L15.6,10 L15.6,8.33333333 L12.2,8.33333333 Z M5.4,11.6666667 L5.4,13.3333333 L7.1,13.3333333 L7.1,11.6666667 L5.4,11.6666667 Z M8.8,11.6666667 L8.8,13.3333333 L10.5,13.3333333 L10.5,11.6666667 L8.8,11.6666667 Z M12.2,11.6666667 L12.2,13.3333333 L15.6,13.3333333 L15.6,11.6666667 L12.2,11.6666667 Z M5.4,15 L5.4,16.6666667 L7.1,16.6666667 L7.1,15 L5.4,15 Z M8.8,15 L8.8,16.6666667 L10.5,16.6666667 L10.5,15 L8.8,15 Z M12.2,15 L12.2,16.6666667 L15.6,16.6666667 L15.6,15 L12.2,15 Z" id="icon"></path>
        </g>
    </g>
</svg>