<?xml version="1.0" encoding="UTF-8"?>
<svg width="64px" height="48px" viewBox="0 0 64 48" version="1.1" xmlns="http://www.w3.org/2000/svg" xmlns:xlink="http://www.w3.org/1999/xlink">
    <!-- Generator: Sketch 49.1 (51147) - http://www.bohemiancoding.com/sketch -->
    <title>Form/⚙️/deadline-icon</title>
    <desc>Created with Sketch.</desc>
    <defs></defs>
    <g id="Form/⚙️/deadline-icon" stroke="none" stroke-width="1" fill="none" fill-rule="evenodd">
        <path d="M25.7692308,15 C24.2493994,15 23,16.2232049 23,17.7111721 C23,18.5425273 23.4002411,19.2785685 24.0060103,19.7763234 C23.3677885,20.9889372 23,22.3604094 23,23.8113094 C23,26.3848055 24.1412263,28.693538 25.9423077,30.3085914 C25.9044468,30.3509534 25.8774038,30.3933155 25.8503609,30.4409725 L24.4657455,32.9826963 C24.3413462,33.1998016 24.3413462,33.4645652 24.4765622,33.6710806 C24.6063698,33.8828909 24.8443506,34.0099771 25.0985577,33.9993859 C25.3527648,33.9834998 25.5745192,33.8405288 25.6881006,33.6181273 L27.0348565,31.1505377 C28.4573314,32.0772069 30.166466,32.6226188 32,32.6226188 C33.833534,32.6226188 35.5426686,32.0772069 36.9705532,31.1505377 L38.3118994,33.6181273 C38.4254808,33.8405288 38.6472352,33.9834998 38.9014423,33.9993859 C39.1556494,34.0099771 39.3936302,33.8828909 39.5234378,33.6710806 C39.6586538,33.4645652 39.6586538,33.1998016 39.5342545,32.9826963 L38.1496391,30.4409725 C38.1225962,30.3933155 38.0955532,30.3509534 38.0576923,30.3085914 C39.8587737,28.693538 41,26.3848055 41,23.8113094 C41,22.3604094 40.6322115,20.9889372 39.9939911,19.7763234 C40.5997603,19.2785685 41,18.5425273 41,17.7111721 C41,16.2232049 39.7506006,15 38.2307692,15 C37.3816109,15 36.6298077,15.3918498 36.1213949,15.9849187 C34.8828122,15.3600775 33.4873802,15 32,15 C30.5126198,15 29.1171878,15.3600775 27.8786065,15.9849187 C27.3701923,15.3918498 26.6183891,15 25.7692308,15 Z M25.7692308,16.3555861 C26.1316109,16.3555861 26.4507218,16.4932634 26.6941109,16.7103687 C25.947716,17.2451894 25.2932692,17.8912116 24.7415872,18.6219565 C24.5198314,18.3836702 24.3846154,18.0659548 24.3846154,17.7111721 C24.3846154,16.9539499 24.9957929,16.3555861 25.7692308,16.3555861 Z M32,16.3555861 C36.2133417,16.3555861 39.6153846,19.686303 39.6153846,23.8113094 C39.6153846,27.9363158 36.2133417,31.2670327 32,31.2670327 C27.7866583,31.2670327 24.3846154,27.9363158 24.3846154,23.8113094 C24.3846154,19.686303 27.7866583,16.3555861 32,16.3555861 Z M38.2307692,16.3555861 C39.0042071,16.3555861 39.6153846,16.9539499 39.6153846,17.7111721 C39.6153846,18.0659548 39.4801686,18.3836702 39.2530045,18.6219565 C38.7067308,17.8912116 38.052284,17.2451894 37.3058891,16.7103687 C37.5492795,16.4932634 37.8683891,16.3555861 38.2307692,16.3555861 Z M31.3076923,17.7111721 L31.3076923,24.4891024 L35.4615385,24.4891024 L35.4615385,23.1335164 L32.6923077,23.1335164 L32.6923077,17.7111721 L31.3076923,17.7111721 Z" id="Shape" fill="#C4CADA" fill-rule="nonzero"></path>
    </g>
</svg>