<?xml version="1.0" encoding="UTF-8"?>
<svg width="32px" height="32px" viewBox="0 0 32 32" version="1.1" xmlns="http://www.w3.org/2000/svg" xmlns:xlink="http://www.w3.org/1999/xlink">
    <!-- Generator: Sketch 49.1 (51147) - http://www.bohemiancoding.com/sketch -->
    <title>Icons/design-icon-grade</title>
    <desc>Created with Sketch.</desc>
    <defs>
        <linearGradient x1="0%" y1="0%" x2="100%" y2="100%" id="linearGradient-1">
            <stop stop-color="#FFE10A" offset="0%"></stop>
            <stop stop-color="#FF3E5C" offset="100%"></stop>
        </linearGradient>
    </defs>
    <g id="Icons/design-icon" stroke="none" stroke-width="1" fill="none" fill-rule="evenodd">
        <path d="M8.8125,3 L8.125,3.71875 L3.71875,8.125 L3,8.8125 L10.1875,16 L5.1875,21 L5.125,21.3125 L4.03125,26.8125 L3.71875,28.28125 L5.1875,27.96875 L10.6875,26.875 L11,26.8125 L16,21.8125 L23.15625,28.96875 L23.84375,28.25 L28.25,23.84375 L28.96875,23.15625 L21.8125,16 L26.75,11.0625 C28.359375,9.453125 28.359375,6.859375 26.75,5.25 C25.945313,4.445313 24.894531,4.03125 23.84375,4.03125 C22.792969,4.03125 21.742188,4.445313 20.9375,5.25 L16,10.1875 L8.8125,3 Z M8.8125,5.84375 L10.75,7.8125 L9.28125,9.28125 L10.71875,10.71875 L12.1875,9.25 L14.5625,11.625 L11.59375,14.59375 L5.8125,8.8125 L8.8125,5.84375 Z M23.84375,5.96875 C24.363281,5.96875 24.890625,6.203125 25.34375,6.65625 C26.246094,7.558594 26.246094,8.722656 25.34375,9.625 L24.6875,10.28125 L21.71875,7.3125 L22.375,6.65625 C22.828125,6.203125 23.324219,5.96875 23.84375,5.96875 Z M20.3125,8.71875 L23.28125,11.6875 L11.1875,23.78125 C10.527344,22.511719 9.488281,21.472656 8.21875,20.8125 L20.3125,8.71875 Z M20.40625,17.40625 L22.78125,19.78125 L21.28125,21.28125 L22.71875,22.71875 L24.21875,21.21875 L26.125,23.125 L23.125,26.125 L17.40625,20.40625 L20.40625,17.40625 Z M6.9375,22.40625 C8.136719,22.910156 9.089844,23.863281 9.59375,25.0625 L6.28125,25.71875 L6.9375,22.40625 Z" id="icon" fill="url(#linearGradient-1)" fill-rule="nonzero"></path>
    </g>
</svg>