<?xml version="1.0" encoding="UTF-8"?>
<svg width="32px" height="32px" viewBox="0 0 32 32" version="1.1" xmlns="http://www.w3.org/2000/svg" xmlns:xlink="http://www.w3.org/1999/xlink">
    <!-- Generator: Sketch 48.2 (47327) - http://www.bohemiancoding.com/sketch -->
    <title>Icons/development-icon</title>
    <desc>Created with Sketch.</desc>
    <defs></defs>
    <g id="Assets" stroke="none" stroke-width="1" fill="none" fill-rule="evenodd">
        <g id="Icons/development-icon" fill="#FFFFFF" fill-rule="nonzero">
            <path d="M3,6 L3,24 L13,24 L13,25 L8.1875,25 L5,28 L27,28 L23.8125,25 L19,25 L19,24 L29,24 L29,6 L3,6 Z M5,8 L27,8 L27,22 L5,22 L5,8 Z M13.28125,10.28125 L9.28125,14.28125 L8.59375,15 L9.28125,15.71875 L13.28125,19.71875 L14.71875,18.28125 L11.4375,15 L14.71875,11.71875 L13.28125,10.28125 Z M18.71875,10.28125 L17.28125,11.71875 L20.5625,15 L17.28125,18.28125 L18.71875,19.71875 L22.71875,15.71875 L23.40625,15 L22.71875,14.28125 L18.71875,10.28125 Z" id="icon"></path>
        </g>
    </g>
</svg>