<?xml version="1.0" encoding="UTF-8"?>
<svg width="32px" height="32px" viewBox="0 0 32 32" version="1.1" xmlns="http://www.w3.org/2000/svg" xmlns:xlink="http://www.w3.org/1999/xlink">
    <!-- Generator: Sketch 49.1 (51147) - http://www.bohemiancoding.com/sketch -->
    <title>Icons/estimate-icon</title>
    <desc>Created with Sketch.</desc>
    <defs></defs>
    <g id="Icons/estimate-icon" stroke="none" stroke-width="1" fill="none" fill-rule="evenodd">
        <path d="M2,6 L2,22 L21.53125,22 C21.007813,21.417969 20.621094,20.734375 20.359375,20 L5.914063,20 C5.96875,19.839844 6,19.671875 6,19.5 C6,18.671875 5.328125,18 4.5,18 C4.328125,18 4.160156,18.03125 4,18.089844 L4,9.910156 C4.160156,9.96875 4.328125,10 4.5,10 C5.328125,10 6,9.328125 6,8.5 C6,8.328125 5.96875,8.160156 5.914063,8 L24.089844,8 C24.03125,8.160156 24,8.328125 24,8.5 C24,9.328125 24.671875,10 25.5,10 C25.671875,10 25.839844,9.96875 26,9.910156 L26,13 L28,13 L28,6 L2,6 Z M15,10 C12.789063,10 11,11.789063 11,14 L11,15 L11.203125,15 C11.652344,16.710938 13.144531,18 15,18 C16.214844,18 17.273438,17.476563 18,16.648438 L18,13 L18.863281,13 C18.429688,11.257813 16.894531,10 15,10 Z M15,12 C16.140625,12 17,12.859375 17,14 C17,15.140625 16.140625,16 15,16 C13.808594,16 13,15.191406 13,14 C13,12.808594 13.808594,12 15,12 Z M8,12.5 C7.171875,12.5 6.5,13.171875 6.5,14 C6.5,14.828125 7.171875,15.5 8,15.5 C8.828125,15.5 9.5,14.828125 9.5,14 C9.5,13.171875 8.828125,12.5 8,12.5 Z M20,14 L20,16 L21,16 L21,18 C21,19.601563 21.800781,21.101563 23,22 C21.800781,22.898438 21,24.398438 21,26 L21,28 L20,28 L20,30 L32,30 L32,28 L31,28 L31,26 C31,24.398438 30.199219,22.898438 29,22 C30.199219,21.101563 31,19.601563 31,18 L31,16 L32,16 L32,14 L20,14 Z M23,16 L29,16 L29,18 C29,19.699219 27.699219,21 26,21 C24.300781,21 23,19.699219 23,18 L23,16 Z M24,18 C24,18 24,20 26,20 C28,20 28,18 28,18 L24,18 Z M26,23 C27.699219,23 29,24.300781 29,26 L29,28 L28,28 C28,26.898438 27.101563,26 26,26 C24.898438,26 24,26.898438 24,28 L23,28 L23,26 C23,24.300781 24.300781,23 26,23 Z" id="icon" fill="#FFFFFF" fill-rule="nonzero"></path>
    </g>
</svg>