<?xml version="1.0" encoding="UTF-8"?>
<svg width="64px" height="48px" viewBox="0 0 64 48" version="1.1" xmlns="http://www.w3.org/2000/svg" xmlns:xlink="http://www.w3.org/1999/xlink">
    <!-- Generator: Sketch 48.2 (47327) - http://www.bohemiancoding.com/sketch -->
    <title>input-Form/⚙️/mail-con</title>
    <desc>Created with Sketch.</desc>
    <defs></defs>
    <g id="Symbols" stroke="none" stroke-width="1" fill="none" fill-rule="evenodd">
        <g id="Form/⚙️/mail-con">
            <rect id="Base" x="0" y="0" width="48" height="48"></rect>
            <path d="M24.1428571,16 C22.9654014,16 22,16.9829542 22,18.1818182 L22,29.8181818 C22,31.0170458 22.9654014,32 24.1428571,32 L39.8571429,32 C41.0345986,32 42,31.0170458 42,29.8181818 L42,18.1818182 C42,16.9829542 41.0345986,16 39.8571429,16 L24.1428571,16 Z M24.1428571,17.4545455 L39.8571429,17.4545455 C39.9073657,17.4545455 39.9464286,17.4715913 39.9910714,17.4829542 L32,23.1136364 L24.0089286,17.4829542 C24.0535714,17.4715913 24.0926343,17.4545455 24.1428571,17.4545455 Z M23.4285714,18.8409091 L32,24.8863636 L40.5714286,18.8409091 L40.5714286,29.1420451 L36.0848214,25.3181818 L34.8571429,26.1818182 L39.96317,30.5227273 C39.9296871,30.5284087 39.8962057,30.5454545 39.8571429,30.5454545 L24.1428571,30.5454545 C24.1037943,30.5454545 24.0703129,30.5284087 24.03683,30.5227273 L29.1428571,26.1818182 L27.9151786,25.3181818 L23.4285714,29.1420451 L23.4285714,18.8409091 Z" id="Shape" fill="#C4CADA" fill-rule="nonzero"></path>
        </g>
    </g>
</svg>