<?xml version="1.0" encoding="UTF-8"?>
<svg width="64px" height="48px" viewBox="0 0 64 48" version="1.1" xmlns="http://www.w3.org/2000/svg" xmlns:xlink="http://www.w3.org/1999/xlink">
    <!-- Generator: Sketch 48.2 (47327) - http://www.bohemiancoding.com/sketch -->
    <title>input-Form/⚙️/user-icon</title>
    <desc>Created with Sketch.</desc>
    <defs></defs>
    <g id="Symbols" stroke="none" stroke-width="1" fill="none" fill-rule="evenodd">
        <g id="Form/⚙️/user-icon">
            <rect id="Base" x="0" y="0" width="48" height="48"></rect>
            <path d="M32,15 C29.3562496,15 27.2,17.0827411 27.2,19.6363636 C27.2,22.1899862 29.3562496,24.2727273 32,24.2727273 C34.6437504,24.2727273 36.8,22.1899862 36.8,19.6363636 C36.8,17.0827411 34.6437504,15 32,15 Z M32,24.2727273 C27.5937504,24.2727273 24,27.7439635 24,32 L25.6,32 C25.6,29.7904837 26.8,27.8767752 28.5937504,26.7840909 L32,30.4545455 L35.4062496,26.7840909 C37.2,27.8767752 38.4,29.7904837 38.4,32 L40,32 C40,27.7439635 36.4062496,24.2727273 32,24.2727273 Z M32,16.5454545 C33.775,16.5454545 35.2,17.921875 35.2,19.6363636 C35.2,21.3508523 33.775,22.7272727 32,22.7272727 C30.225,22.7272727 28.8,21.3508523 28.8,19.6363636 C28.8,17.921875 30.225,16.5454545 32,16.5454545 Z M32,25.8181818 C32.6562496,25.8181818 33.275,25.9389205 33.875,26.1200292 L32,28.1363636 L30.125,26.1200292 C30.725,25.9389205 31.3437504,25.8181818 32,25.8181818 Z" id="Shape" fill="#C4CADA" fill-rule="nonzero"></path>
        </g>
    </g>
</svg>