<?xml version="1.0" encoding="UTF-8"?>
<svg width="64px" height="48px" viewBox="0 0 64 48" version="1.1" xmlns="http://www.w3.org/2000/svg" xmlns:xlink="http://www.w3.org/1999/xlink">
    <!-- Generator: Sketch 48.2 (47327) - http://www.bohemiancoding.com/sketch -->
    <title>input-Form/⚙️/pen-icon</title>
    <desc>Created with Sketch.</desc>
    <defs></defs>
    <g id="Symbols" stroke="none" stroke-width="1" fill="none" fill-rule="evenodd">
        <g id="Form/⚙️/pen-icon">
            <rect id="Base" x="0" y="0" width="48" height="48"></rect>
            <path d="M34.1907365,14 C33.6075955,14 33.0244562,14.2162922 32.5795874,14.6548857 L28.3954093,18.836534 C28.191009,19.0287937 28.1128566,19.3111739 28.1789863,19.5815403 C28.2511273,19.8519051 28.4615374,20.0621895 28.7320673,20.1342869 C29.0025957,20.200375 29.2851483,20.1222699 29.4775243,19.9179947 L33.6737252,15.7483619 C33.9622892,15.4539647 34.4131708,15.4539647 34.7077462,15.7483619 L35.3630266,16.4753435 L23.7783851,28.0529821 C23.6701728,28.1611289 23.5920205,28.2993144 23.5619621,28.4435092 L22.8405521,32.0724108 L22.2393771,32.6732224 C22.0349768,32.8714913 21.9568244,33.1538716 22.022954,33.4242379 C22.095095,33.6946027 22.3055052,33.9048872 22.5760351,33.9769845 C22.8465634,34.0430727 23.1291161,33.9649675 23.3214921,33.7667001 L23.9286785,33.1598809 L27.5477513,32.4328978 C27.6980462,32.4028576 27.8363153,32.3307602 27.9385163,32.2286226 L41.3266828,18.8545572 C41.3326957,18.8545572 41.3326957,18.8545572 41.3326957,18.8485494 C42.2224348,17.9593484 42.2224348,16.499376 41.3326957,15.6041672 L40.4068854,14.6789182 C39.9620167,14.2403246 39.3788758,14.0180247 38.789725,14.0180247 C38.1945613,14.0180247 37.6054106,14.2403246 37.1605403,14.6789182 L36.4571659,15.387875 L35.8078969,14.6669012 L35.7898613,14.6548857 C35.3510039,14.2162922 34.7678645,14 34.1907365,14 Z M38.789725,15.5080373 C38.9640654,15.5080373 39.1444186,15.5981594 39.318759,15.7723944 L40.2385564,16.6976449 C40.5872387,17.0401071 40.5872387,17.4246265 40.2385564,17.7670887 L32.7839862,25.2171517 L30.7880851,23.2224574 L38.2486667,15.7723944 C38.2546796,15.7723944 38.2546796,15.7723944 38.2546796,15.7723944 C38.42902,15.5981594 38.6093717,15.5080373 38.789725,15.5080373 Z M29.70597,24.3039181 L31.7018711,26.2986124 L27.0187173,30.9729269 L24.5298535,31.4715993 L25.0288292,28.9722233 L29.70597,24.3039181 Z" id="Shape" fill="#C4CADA" fill-rule="nonzero"></path>
        </g>
    </g>
</svg>