<?xml version="1.0" encoding="UTF-8"?>
<svg width="32px" height="32px" viewBox="0 0 32 32" version="1.1" xmlns="http://www.w3.org/2000/svg" xmlns:xlink="http://www.w3.org/1999/xlink">
    <!-- Generator: Sketch 50.2 (55047) - http://www.bohemiancoding.com/sketch -->
    <title>Icons/interaction-icon-grade</title>
    <desc>Created with Sketch.</desc>
    <defs>
        <linearGradient x1="100%" y1="100%" x2="0%" y2="0%" id="linearGradient-1">
            <stop stop-color="#4268FF" offset="0%"></stop>
            <stop stop-color="#FF4DAE" offset="100%"></stop>
        </linearGradient>
    </defs>
    <g id="Icons/interaction-icon" stroke="none" stroke-width="1" fill="none" fill-rule="evenodd">
        <path d="M11,2 C8.789063,2 7,3.789063 7,6 C7,7.011719 7.378906,7.925781 8,8.625 L8,14.65625 L5.90625,17.34375 C4.628906,18.996094 4.714844,21.367188 6.09375,22.9375 L8.46875,25.625 C9.796875,27.136719 11.707031,28 13.71875,28 L19,28 C22.855469,28 26,24.855469 26,21 L26,14 C26,12.355469 24.644531,11 23,11 C22.464844,11 21.96875,11.15625 21.53125,11.40625 C20.996094,10.5625 20.0625,10 19,10 C18.464844,10 17.96875,10.15625 17.53125,10.40625 C16.996094,9.5625 16.0625,9 15,9 C14.648438,9 14.316406,9.074219 14,9.1875 L14,8.625 C14.617188,7.925781 15,7.007813 15,6 C15,3.789063 13.210938,2 11,2 Z M11,5 C11.550781,5 12,5.449219 12,6 L12,15 L14,15 L14,12 C14,11.433594 14.433594,11 15,11 C15.566406,11 16,11.433594 16,12 L16,15 L18,15 L18,13 C18,12.433594 18.433594,12 19,12 C19.566406,12 20,12.433594 20,13 L20,15 L22,15 L22,14 C22,13.433594 22.433594,13 23,13 C23.566406,13 24,13.433594 24,14 L24,21 C24,23.773438 21.773438,26 19,26 L13.71875,26 C12.28125,26 10.917969,25.394531 9.96875,24.3125 L7.59375,21.59375 C6.839844,20.734375 6.800781,19.5 7.5,18.59375 L8,17.9375 L8,19 L10,19 L10,6 C10,5.871094 10.019531,5.738281 10.0625,5.625 C10.066406,5.617188 10.058594,5.601563 10.0625,5.59375 C10.113281,5.472656 10.191406,5.371094 10.28125,5.28125 C10.460938,5.101563 10.726563,5 11,5 Z" id="icon" fill="url(#linearGradient-1)" fill-rule="nonzero"></path>
    </g>
</svg>