<?xml version="1.0" encoding="UTF-8"?>
<svg width="32px" height="32px" viewBox="0 0 32 32" version="1.1" xmlns="http://www.w3.org/2000/svg" xmlns:xlink="http://www.w3.org/1999/xlink">
    <!-- Generator: Sketch 50.2 (55047) - http://www.bohemiancoding.com/sketch -->
    <title>Icons/lock-icon</title>
    <desc>Created with Sketch.</desc>
    <defs></defs>
    <g id="Icons/lock-icon" stroke="none" stroke-width="1" fill="none" fill-rule="evenodd">
        <path d="M16,5 C13.75,5 12.242188,5.882813 10.886719,6.621094 C9.527344,7.359375 8.28125,8 6,8 L5,8 L5,9 C5,16.71875 7.605469,21.738281 10.246094,24.777344 C12.886719,27.816406 15.625,28.925781 15.625,28.925781 L16,29.078125 L16.367188,28.929688 C16.367188,28.929688 19.113281,27.832031 21.753906,24.796875 C24.394531,21.765625 27,16.746094 27,9 L27,8 L26,8 C23.730469,8 22.484375,7.359375 21.125,6.621094 C19.761719,5.882813 18.25,5 16,5 Z M16,7 C17.75,7 18.765625,7.617188 20.171875,8.378906 C21.351563,9.019531 22.910156,9.625 24.933594,9.835938 C24.742188,16.605469 22.503906,20.894531 20.246094,23.484375 C18.195313,25.839844 16.480469,26.65625 16,26.871094 C15.523438,26.652344 13.804688,25.824219 11.753906,23.464844 C9.496094,20.867188 7.257813,16.578125 7.070313,9.835938 C9.097656,9.625 10.660156,9.019531 11.839844,8.378906 C13.242188,7.617188 14.25,7 16,7 Z M16,11 C14.34375,11 13,12.34375 13,14 C13,15.171875 13.6875,16.238281 14.753906,16.722656 L14,22 L18,22 L17.246094,16.722656 C18.3125,16.238281 19,15.171875 19,14 C19,12.34375 17.65625,11 16,11 Z" id="icon" fill="#FFFFFF" fill-rule="nonzero"></path>
    </g>
</svg>