<?xml version="1.0" encoding="UTF-8"?>
<svg width="32px" height="32px" viewBox="0 0 32 32" version="1.1" xmlns="http://www.w3.org/2000/svg" xmlns:xlink="http://www.w3.org/1999/xlink">
    <!-- Generator: Sketch 48.2 (47327) - http://www.bohemiancoding.com/sketch -->
    <title>Icons/mobile-icon</title>
    <desc>Created with Sketch.</desc>
    <defs></defs>
    <g id="Assets" stroke="none" stroke-width="1" fill="none" fill-rule="evenodd">
        <g id="Icons/mobile-icon" fill="#FFFFFF" fill-rule="nonzero">
            <path d="M7,4 C6.476563,4 5.941406,4.183594 5.5625,4.5625 C5.183594,4.941406 5,5.476563 5,6 L5,22 C5,22.523438 5.183594,23.058594 5.5625,23.4375 C5.941406,23.816406 6.476563,24 7,24 L13,24 L13,26 C13,26.523438 13.183594,27.058594 13.5625,27.4375 C13.941406,27.816406 14.476563,28 15,28 L25,28 C25.523438,28 26.058594,27.816406 26.4375,27.4375 C26.816406,27.058594 27,26.523438 27,26 L27,10 C27,9.476563 26.816406,8.941406 26.4375,8.5625 C26.058594,8.183594 25.523438,8 25,8 L19,8 L19,6 C19,5.476563 18.816406,4.941406 18.4375,4.5625 C18.058594,4.183594 17.523438,4 17,4 L7,4 Z M7,6 L17,6 L17,8 L15,8 C14.476563,8 13.941406,8.183594 13.5625,8.5625 C13.183594,8.941406 13,9.476563 13,10 L13,19 L10.5,19 L10.5,21 L13,21 L13,22 L7,22 L7,6 Z M15,10 L25,10 L25,26 L15,26 L15,10 Z M18.5,23 L18.5,25 L21.5,25 L21.5,23 L18.5,23 Z" id="icon"></path>
        </g>
    </g>
</svg>