<?xml version="1.0" encoding="UTF-8"?>
<svg width="32px" height="32px" viewBox="0 0 32 32" version="1.1" xmlns="http://www.w3.org/2000/svg" xmlns:xlink="http://www.w3.org/1999/xlink">
    <!-- Generator: Sketch 50.2 (55047) - http://www.bohemiancoding.com/sketch -->
    <title>Icons/pack-icon-grade</title>
    <desc>Created with Sketch.</desc>
    <defs>
        <linearGradient x1="0%" y1="0%" x2="100%" y2="100%" id="linearGradient-1">
            <stop stop-color="#00F2AA" offset="0%"></stop>
            <stop stop-color="#0083FF" offset="100%"></stop>
        </linearGradient>
    </defs>
    <g id="Icons/pack-icon" stroke="none" stroke-width="1" fill="none" fill-rule="evenodd">
        <path d="M12,4 C10.355469,4 9,5.355469 9,7 C9,7.351563 9.074219,7.683594 9.1875,8 L4,8 L4,14 L5,14 L5,27 L27,27 L27,14 L28,14 L28,8 L22.8125,8 C22.925781,7.683594 23,7.351563 23,7 C23,5.355469 21.644531,4 20,4 C18.25,4 17.0625,5.328125 16.28125,6.4375 C16.175781,6.585938 16.09375,6.730469 16,6.875 C15.90625,6.730469 15.824219,6.585938 15.71875,6.4375 C14.9375,5.328125 13.75,4 12,4 Z M12,6 C12.625,6 13.4375,6.671875 14.0625,7.5625 C14.214844,7.78125 14.191406,7.792969 14.3125,8 L12,8 C11.433594,8 11,7.566406 11,7 C11,6.433594 11.433594,6 12,6 Z M20,6 C20.566406,6 21,6.433594 21,7 C21,7.566406 20.566406,8 20,8 L17.6875,8 C17.808594,7.792969 17.785156,7.78125 17.9375,7.5625 C18.5625,6.671875 19.375,6 20,6 Z M6,10 L26,10 L26,12 L17,12 L17,11 L15,11 L15,12 L6,12 L6,10 Z M7,14 L25,14 L25,25 L17,25 L17,15 L15,15 L15,25 L7,25 L7,14 Z" id="icon" fill="url(#linearGradient-1)" fill-rule="nonzero"></path>
    </g>
</svg>