<?xml version="1.0" encoding="UTF-8"?>
<svg width="64px" height="48px" viewBox="0 0 64 48" version="1.1" xmlns="http://www.w3.org/2000/svg" xmlns:xlink="http://www.w3.org/1999/xlink">
    <!-- Generator: Sketch 49.1 (51147) - http://www.bohemiancoding.com/sketch -->
    <title>Form/⚙️/project-icon</title>
    <desc>Created with Sketch.</desc>
    <defs></defs>
    <g id="Form/⚙️/project-icon" stroke="none" stroke-width="1" fill="none" fill-rule="evenodd">
        <path d="M29.8571429,14 C28.6796871,14 27.7142857,14.9876799 27.7142857,16.1923077 L27.7142857,16.9230769 L24.1428571,16.9230769 C22.9654014,16.9230769 22,17.9107568 22,19.1153846 L22,30.8076923 C22,32.0123201 22.9654014,33 24.1428571,33 L39.8571429,33 C41.0345986,33 42,32.0123201 42,30.8076923 L42,19.1153846 C42,17.9107568 41.0345986,16.9230769 39.8571429,16.9230769 L36.2857143,16.9230769 L36.2857143,16.1923077 C36.2857143,14.9876799 35.3203129,14 34.1428571,14 L29.8571429,14 Z M29.8571429,15.4615385 L34.1428571,15.4615385 C34.5446429,15.4615385 34.8571429,15.78125 34.8571429,16.1923077 L34.8571429,16.9230769 L29.1428571,16.9230769 L29.1428571,16.1923077 C29.1428571,15.78125 29.4553571,15.4615385 29.8571429,15.4615385 Z M24.1428571,18.3846154 L39.8571429,18.3846154 C40.2589286,18.3846154 40.5714286,18.7043269 40.5714286,19.1153846 L40.5714286,24.2307692 L37.7142857,24.2307692 L37.7142857,22.7692308 L34.8571429,22.7692308 L34.8571429,24.2307692 L29.1428571,24.2307692 L29.1428571,22.7692308 L26.2857143,22.7692308 L26.2857143,24.2307692 L23.4285714,24.2307692 L23.4285714,19.1153846 C23.4285714,18.7043269 23.7410714,18.3846154 24.1428571,18.3846154 Z M23.4285714,25.6923077 L40.5714286,25.6923077 L40.5714286,30.8076923 C40.5714286,31.21875 40.2589286,31.5384615 39.8571429,31.5384615 L24.1428571,31.5384615 C23.7410714,31.5384615 23.4285714,31.21875 23.4285714,30.8076923 L23.4285714,25.6923077 Z" id="icon" fill="#C4CADA" fill-rule="nonzero"></path>
    </g>
</svg>