<?xml version="1.0" encoding="UTF-8"?>
<svg width="32px" height="32px" viewBox="0 0 32 32" version="1.1" xmlns="http://www.w3.org/2000/svg" xmlns:xlink="http://www.w3.org/1999/xlink">
    <!-- Generator: Sketch 48.2 (47327) - http://www.bohemiancoding.com/sketch -->
    <title>Icons/prototype-icon</title>
    <desc>Created with Sketch.</desc>
    <defs></defs>
    <g id="Assets" stroke="none" stroke-width="1" fill="none" fill-rule="evenodd">
        <g id="Icons/prototype-icon" fill="#FFFFFF" fill-rule="nonzero">
            <path d="M5,5 L5,11 L27,11 L27,5 L5,5 Z M7,7 L25,7 L25,9 L7,9 L7,7 Z M5,13 L5,27 L19,27 L19,13 L5,13 Z M21,13 L21,27 L27,27 L27,13 L21,13 Z M7,15 L17,15 L17,25 L7,25 L7,15 Z M23,15 L25,15 L25,25 L23,25 L23,15 Z" id="icon"></path>
        </g>
    </g>
</svg>