<?xml version="1.0" encoding="UTF-8"?>
<svg width="2583px" height="2231px" viewBox="0 0 2583 2231" version="1.1" xmlns="http://www.w3.org/2000/svg" xmlns:xlink="http://www.w3.org/1999/xlink">
    <!-- Generator: Sketch 51.3 (57544) - http://www.bohemiancoding.com/sketch -->
    <title>raed</title>
    <desc>Created with Sketch.</desc>
    <defs>
        <filter x="-7.3%" y="-6.0%" width="114.4%" height="116.7%" filterUnits="objectBoundingBox" id="filter-1">
            <feOffset dx="0" dy="50" in="SourceAlpha" result="shadowOffsetOuter1"></feOffset>
            <feGaussianBlur stdDeviation="50" in="shadowOffsetOuter1" result="shadowBlurOuter1"></feGaussianBlur>
            <feColorMatrix values="0 0 0 0 0   0 0 0 0 0   0 0 0 0 0  0 0 0 0.3 0" type="matrix" in="shadowBlurOuter1" result="shadowMatrixOuter1"></feColorMatrix>
            <feMerge>
                <feMergeNode in="shadowMatrixOuter1"></feMergeNode>
                <feMergeNode in="SourceGraphic"></feMergeNode>
            </feMerge>
        </filter>
        <ellipse id="path-2" cx="66.5387755" cy="27.6354028" rx="27.5387755" ry="27.6354028"></ellipse>
        <filter x="-25.4%" y="-18.1%" width="150.8%" height="150.7%" filterUnits="objectBoundingBox" id="filter-3">
            <feOffset dx="0" dy="4" in="SourceAlpha" result="shadowOffsetOuter1"></feOffset>
            <feGaussianBlur stdDeviation="4" in="shadowOffsetOuter1" result="shadowBlurOuter1"></feGaussianBlur>
            <feColorMatrix values="0 0 0 0 0   0 0 0 0 0   0 0 0 0 0  0 0 0 0.5 0" type="matrix" in="shadowBlurOuter1"></feColorMatrix>
        </filter>
        <ellipse id="path-4" cx="92.5122449" cy="87.3266738" rx="4.1122449" ry="4.12667383"></ellipse>
        <filter x="-170.2%" y="-121.2%" width="440.4%" height="439.3%" filterUnits="objectBoundingBox" id="filter-5">
            <feOffset dx="0" dy="4" in="SourceAlpha" result="shadowOffsetOuter1"></feOffset>
            <feGaussianBlur stdDeviation="4" in="shadowOffsetOuter1" result="shadowBlurOuter1"></feGaussianBlur>
            <feColorMatrix values="0 0 0 0 0   0 0 0 0 0   0 0 0 0 0  0 0 0 0.5 0" type="matrix" in="shadowBlurOuter1"></feColorMatrix>
        </filter>
        <path d="M44.9163265,73.2084783 C42.9530612,71.3448192 40.5918367,70.2 38.0979592,70.2 C35.5244898,70.2 33.1367347,71.3448192 31.2,73.3149731 C34.9142857,72.4896384 39.6367347,72.1967777 44.9163265,73.2084783 Z" id="path-6"></path>
        <filter x="-102.1%" y="-321.0%" width="304.1%" height="998.9%" filterUnits="objectBoundingBox" id="filter-7">
            <feOffset dx="0" dy="4" in="SourceAlpha" result="shadowOffsetOuter1"></feOffset>
            <feGaussianBlur stdDeviation="4" in="shadowOffsetOuter1" result="shadowBlurOuter1"></feGaussianBlur>
            <feColorMatrix values="0 0 0 0 0   0 0 0 0 0   0 0 0 0 0  0 0 0 0.5 0" type="matrix" in="shadowBlurOuter1"></feColorMatrix>
        </filter>
        <path d="M129.839791,101.023358 C126.629587,80.230247 113.76224,62.6319799 96.0132607,52.9941998 C96.8357097,58.9046617 97.6581587,68.8353025 95.6948934,77.6211242 C99.621424,78.978933 102.513261,82.6796276 102.513261,87.1524096 C102.513261,92.6368922 98.0826485,97.1895453 92.5112199,97.1895453 C87.0459138,97.1895453 82.5091791,92.743387 82.5091791,87.1524096 C82.5091791,82.3867669 85.798975,78.446459 90.2561179,77.4347583 C92.9357097,67.0781382 90.7601995,53.7396634 90.1499954,50.2253348 C89.4336689,49.9058503 88.7173424,49.6129896 87.9744852,49.4 C82.0050975,55.2039671 73.9397914,58.8247905 64.9724444,58.8247905 C56.2173424,58.8247905 48.1520363,55.3104619 42.288771,49.6129896 C41.3601995,51.5831436 39.6091791,56.3487863 39.9275465,63.4839384 C48.6826485,65.1346079 55.3948934,75.2782385 55.3948934,87.6050125 C55.3948934,92.1576656 54.466322,96.6038238 52.7153016,100.437637 C51.7867301,103.233126 47.7540771,104.377945 45.8969342,104.377945 C43.1112199,104.377945 40.8561179,102.088306 40.8561179,99.3194415 C40.8561179,96.5505764 43.1377505,94.2609381 45.8969342,94.2609381 C46.7193832,94.2609381 47.8601995,94.4739277 49.1071383,94.8732832 C51.1499954,88.0842392 49.6112199,81.215324 48.6030567,78.5263301 C38.7071383,74.1866667 29.6336689,77.1685213 26.3173424,78.5263301 C25.388771,81.215324 23.6908118,87.471894 25.8132607,94.8732832 C27.0601995,94.3674329 28.1744852,94.1544433 29.0234648,94.1544433 C31.8091791,94.1544433 34.0642812,96.4440816 34.0642812,99.2129467 C34.0642812,101.981812 31.7826485,104.27145 29.0234648,104.27145 C27.2724444,104.27145 23.3459138,103.126631 22.3112199,100.544132 L22.3112199,100.544132 C20.4540771,96.6038238 19.5255056,92.1576656 19.5255056,87.4985177 C19.5255056,75.3847333 26.1316281,65.3475976 34.6744852,63.4839384 C34.4622403,58.8247905 35.098975,54.8844826 35.8153016,52.0091228 C17.0050975,61.5137845 3.3948934,79.5114071 0.105097481,101.023358 C-0.717351499,106.294851 3.3948934,111.060494 8.67448524,111.060494 L121.190812,111.060494 C126.549995,111.087118 130.66224,106.321475 129.839791,101.023358 Z" id="path-8"></path>
        <filter x="-10.8%" y="-16.2%" width="121.5%" height="145.4%" filterUnits="objectBoundingBox" id="filter-9">
            <feOffset dx="0" dy="4" in="SourceAlpha" result="shadowOffsetOuter1"></feOffset>
            <feGaussianBlur stdDeviation="4" in="shadowOffsetOuter1" result="shadowBlurOuter1"></feGaussianBlur>
            <feColorMatrix values="0 0 0 0 0   0 0 0 0 0   0 0 0 0 0  0 0 0 0.5 0" type="matrix" in="shadowBlurOuter1"></feColorMatrix>
        </filter>
        <path d="M1045.26779,2042.84077 C1045.26779,2049.00644 1040.34974,2054 1034.28183,2054 C1028.21392,2054 1023.29588,2049.00644 1023.29588,2042.84077 C1023.29588,2036.67138 1028.21392,2031.67782 1034.28183,2031.67782 C1040.34974,2031.67782 1045.26779,2036.67138 1045.26779,2042.84077 Z M1092.87359,2042.84077 C1092.87359,2049.00644 1087.95555,2054 1081.88764,2054 C1075.81973,2054 1070.90168,2049.00644 1070.90168,2042.84077 C1070.90168,2036.67138 1075.81973,2031.67782 1081.88764,2031.67782 C1087.95555,2031.67782 1092.87359,2036.67138 1092.87359,2042.84077 Z M1092.87725,2020.74557 L1027.87702,2020.74557 C1024.11983,2020.74557 1020.96686,2017.85809 1020.58967,2014.05896 L1013.35725,1942.22538 C1013.16317,1940.32768 1011.59584,1938.88393 1009.71724,1938.88393 L997.661985,1938.88393 C995.636907,1938.88393 994,1937.21693 994,1935.16295 L994,1927.72098 C994,1925.667 995.636907,1924 997.661985,1924 L1019.63389,1924 C1023.38743,1924 1026.5404,1926.88748 1026.91758,1930.68289 L1028.15533,1942.98446 C1028.35308,1944.88216 1029.92407,1946.3259 1031.79901,1946.3259 L1113.47592,1946.3259 C1118.52213,1946.3259 1122.05961,1951.3976 1120.38242,1956.23488 L1099.78376,2015.77062 C1098.75108,2018.75112 1095.98262,2020.74557 1092.87725,2020.74557 Z M1037.79368,2005.86164 L1085.09187,2005.86164 C1086.64455,2005.86164 1088.03245,2004.86441 1088.54146,2003.37602 L1101.42066,1966.16618 C1102.2556,1963.74382 1100.49052,1961.20983 1097.96741,1961.20983 L1034.0438,1961.20983 C1031.87957,1961.20983 1030.18407,1963.11498 1030.40013,1965.31036 L1034.15,2002.52019 C1034.34042,2004.4179 1035.91142,2005.86164 1037.79368,2005.86164" id="path-10"></path>
        <filter x="-13.4%" y="-10.0%" width="126.8%" height="126.2%" filterUnits="objectBoundingBox" id="filter-11">
            <feMorphology radius="1" operator="dilate" in="SourceAlpha" result="shadowSpreadOuter1"></feMorphology>
            <feOffset dx="0" dy="4" in="shadowSpreadOuter1" result="shadowOffsetOuter1"></feOffset>
            <feGaussianBlur stdDeviation="4" in="shadowOffsetOuter1" result="shadowBlurOuter1"></feGaussianBlur>
            <feComposite in="shadowBlurOuter1" in2="SourceAlpha" operator="out" result="shadowBlurOuter1"></feComposite>
            <feColorMatrix values="0 0 0 0 0   0 0 0 0 0   0 0 0 0 0  0 0 0 0.5 0" type="matrix" in="shadowBlurOuter1"></feColorMatrix>
        </filter>
        <filter x="-10.8%" y="-6.8%" width="121.5%" height="119.5%" filterUnits="objectBoundingBox" id="filter-12">
            <feOffset dx="0" dy="4" in="SourceAlpha" result="shadowOffsetOuter1"></feOffset>
            <feGaussianBlur stdDeviation="4" in="shadowOffsetOuter1" result="shadowBlurOuter1"></feGaussianBlur>
            <feColorMatrix values="0 0 0 0 0   0 0 0 0 0   0 0 0 0 0  0 0 0 0.5 0" type="matrix" in="shadowBlurOuter1" result="shadowMatrixOuter1"></feColorMatrix>
            <feMerge>
                <feMergeNode in="shadowMatrixOuter1"></feMergeNode>
                <feMergeNode in="SourceGraphic"></feMergeNode>
            </feMerge>
        </filter>
        <filter x="-10.8%" y="-8.1%" width="121.5%" height="122.6%" filterUnits="objectBoundingBox" id="filter-13">
            <feOffset dx="0" dy="4" in="SourceAlpha" result="shadowOffsetOuter1"></feOffset>
            <feGaussianBlur stdDeviation="4" in="shadowOffsetOuter1" result="shadowBlurOuter1"></feGaussianBlur>
            <feColorMatrix values="0 0 0 0 0   0 0 0 0 0   0 0 0 0 0  0 0 0 0.5 0" type="matrix" in="shadowBlurOuter1" result="shadowMatrixOuter1"></feColorMatrix>
            <feMerge>
                <feMergeNode in="shadowMatrixOuter1"></feMergeNode>
                <feMergeNode in="SourceGraphic"></feMergeNode>
            </feMerge>
        </filter>
        <filter x="-15.6%" y="-10.0%" width="129.6%" height="125.4%" filterUnits="objectBoundingBox" id="filter-14">
            <feOffset dx="0" dy="4" in="SourceAlpha" result="shadowOffsetOuter1"></feOffset>
            <feGaussianBlur stdDeviation="4" in="shadowOffsetOuter1" result="shadowBlurOuter1"></feGaussianBlur>
            <feColorMatrix values="0 0 0 0 0   0 0 0 0 0   0 0 0 0 0  0 0 0 0.5 0" type="matrix" in="shadowBlurOuter1" result="shadowMatrixOuter1"></feColorMatrix>
            <feMerge>
                <feMergeNode in="shadowMatrixOuter1"></feMergeNode>
                <feMergeNode in="SourceGraphic"></feMergeNode>
            </feMerge>
        </filter>
        <filter x="-10.8%" y="-7.0%" width="121.5%" height="119.6%" filterUnits="objectBoundingBox" id="filter-15">
            <feOffset dx="0" dy="4" in="SourceAlpha" result="shadowOffsetOuter1"></feOffset>
            <feGaussianBlur stdDeviation="4" in="shadowOffsetOuter1" result="shadowBlurOuter1"></feGaussianBlur>
            <feColorMatrix values="0 0 0 0 0   0 0 0 0 0   0 0 0 0 0  0 0 0 0.5 0" type="matrix" in="shadowBlurOuter1" result="shadowMatrixOuter1"></feColorMatrix>
            <feMerge>
                <feMergeNode in="shadowMatrixOuter1"></feMergeNode>
                <feMergeNode in="SourceGraphic"></feMergeNode>
            </feMerge>
        </filter>
        <path d="M37.5930888,2.3075 C37.3980888,0.975 36.2551721,0 34.9172554,0 L34.8251721,0 C33.4493388,0.0433333333 32.3280888,1.11041667 32.2197554,2.48083333 L29.8472554,30.9291667 C29.7010054,32.6841667 26.5864221,32.6841667 26.4401721,30.9291667 L24.0676721,2.48083333 C23.9593388,1.07791667 22.7839221,0 21.3755888,0 C19.9672554,0 18.7918388,1.07791667 18.6780888,2.48083333 L16.3055888,30.9291667 C16.1593388,32.6841667 13.0447554,32.6841667 12.8985054,30.9291667 L10.5260054,2.48083333 C10.4122554,1.11041667 9.29100542,0.0433333333 7.92058876,0 L7.82850542,0 C6.49058876,0 5.34767209,0.975 5.15267209,2.3075 L0.239755424,35.0783333 C-1.20649458,44.6820833 4.00433876,53.86875 12.7901721,57.6983333 L8.60850542,116.306667 C8.35933876,119.832917 9.59433876,123.3375 12.0047554,125.926667 C14.4151721,128.515833 17.8276721,130 21.3647554,130 L21.3864221,130 C24.9235054,130 28.3360054,128.515833 30.7464221,125.926667 C33.1568388,123.3375 34.3918388,119.832917 34.1426721,116.306667 L29.9610054,57.6983333 C38.7468388,53.86875 43.9576721,44.6820833 42.5114221,35.0783333 L37.5930888,2.3075 L37.5930888,2.3075 Z" id="path-16"></path>
        <filter x="-32.7%" y="-7.7%" width="165.5%" height="121.5%" filterUnits="objectBoundingBox" id="filter-17">
            <feOffset dx="0" dy="4" in="SourceAlpha" result="shadowOffsetOuter1"></feOffset>
            <feGaussianBlur stdDeviation="4" in="shadowOffsetOuter1" result="shadowBlurOuter1"></feGaussianBlur>
            <feColorMatrix values="0 0 0 0 0   0 0 0 0 0   0 0 0 0 0  0 0 0 0.5 0" type="matrix" in="shadowBlurOuter1"></feColorMatrix>
        </filter>
        <path d="M80.535,0.494128689 C79.82,-0.0150379774 78.8991667,-0.134204644 78.0704167,0.152878689 C77.8375,0.234128689 54.6,8.77079536 54.6,35.2041287 C54.6,54.2328787 60.79125,63.8420454 64.2741667,67.7420454 L60.8075,71.208712 C60.3633333,71.6528787 60.0870833,72.232462 60.0275,72.8553787 L55.7429167,115.706629 C55.3745833,119.352045 56.5716667,123.002879 59.0308333,125.722045 C61.49,128.441212 65.01625,129.995795 68.6833333,129.995795 C75.8495833,129.995795 81.6833333,124.162045 81.6833333,116.995795 L81.6833333,2.70412869 C81.6833333,1.82121202 81.2554167,1.00329536 80.535,0.494128689 L80.535,0.494128689 Z" id="path-18"></path>
        <filter x="-51.7%" y="-7.7%" width="203.4%" height="121.5%" filterUnits="objectBoundingBox" id="filter-19">
            <feOffset dx="0" dy="4" in="SourceAlpha" result="shadowOffsetOuter1"></feOffset>
            <feGaussianBlur stdDeviation="4" in="shadowOffsetOuter1" result="shadowBlurOuter1"></feGaussianBlur>
            <feColorMatrix values="0 0 0 0 0   0 0 0 0 0   0 0 0 0 0  0 0 0 0.5 0" type="matrix" in="shadowBlurOuter1"></feColorMatrix>
        </filter>
        <filter x="-10.8%" y="-11.6%" width="121.5%" height="132.7%" filterUnits="objectBoundingBox" id="filter-20">
            <feOffset dx="0" dy="4" in="SourceAlpha" result="shadowOffsetOuter1"></feOffset>
            <feGaussianBlur stdDeviation="4" in="shadowOffsetOuter1" result="shadowBlurOuter1"></feGaussianBlur>
            <feColorMatrix values="0 0 0 0 0   0 0 0 0 0   0 0 0 0 0  0 0 0 0.5 0" type="matrix" in="shadowBlurOuter1" result="shadowMatrixOuter1"></feColorMatrix>
            <feMerge>
                <feMergeNode in="shadowMatrixOuter1"></feMergeNode>
                <feMergeNode in="SourceGraphic"></feMergeNode>
            </feMerge>
        </filter>
        <path d="M5.45934488,46.799584 C5.28776547,47.641883 5.19937607,48.5101788 5.19937607,49.3992721 C5.19937607,56.5796104 11.0174779,62.3977123 18.1978163,62.3977123 C25.3729552,62.3977123 31.1962564,56.5744111 31.1962564,49.3992721 C31.1962564,48.5101788 31.1026677,47.641883 30.9362876,46.799584 L36.6608007,46.799584 C36.4892213,47.641883 36.4008319,48.5101788 36.4008319,49.3992721 C36.4008319,56.5796104 42.2189337,62.3977123 49.3992721,62.3977123 C56.5744111,62.3977123 62.3977123,56.5744111 62.3977123,49.3992721 C62.3977123,48.5101788 62.3041235,47.641883 62.1377435,46.799584 L67.8622565,46.799584 C67.6906771,47.641883 67.6022877,48.5101788 67.6022877,49.3992721 C67.6022877,56.5796104 73.4203896,62.3977123 80.6007279,62.3977123 C87.7758669,62.3977123 93.5991681,56.5744111 93.5991681,49.3992721 C93.5991681,48.5101788 93.5055793,47.641883 93.3391993,46.799584 L99.0637124,46.799584 C98.8921329,47.641883 98.8037436,48.5101788 98.8037436,49.3992721 C98.8037436,56.5796104 104.621845,62.3977123 111.802184,62.3977123 C118.982522,62.3977123 124.800624,56.5744111 124.800624,49.3992721 C124.800624,48.5101788 124.707035,47.641883 124.540655,46.799584 L129.740031,46.799584 C129.859617,47.6574811 130,48.5101788 130,49.3992721 C130,56.6472023 125.731312,62.850058 119.601248,65.7773067 L119.601248,129.989601 L104.00312,129.989601 L67.6074871,129.989601 L10.4143503,129.989601 L10.4143503,65.7773067 C4.28428589,62.850058 0.0155981282,56.6472023 0.0155981282,49.3992721 C0.0155981282,48.5101788 0.155981282,47.6574811 0.280766308,46.799584 L5.45934488,46.799584 Z M110.263168,5.20457545 L122.970444,41.600208 L7.01395833,41.600208 L19.7212335,5.20457545 L110.263168,5.20457545 Z M72.791265,124.790225 L98.7881454,124.790225 L98.7881454,83.1952166 L72.791265,83.1952166 L72.791265,124.790225 Z M15.5981282,124.785026 L67.591889,124.785026 L67.591889,77.9958405 L103.987521,77.9958405 L103.987521,124.785026 L114.386274,124.785026 L114.386274,67.3371195 C113.528377,67.4619046 112.675679,67.5970883 111.786586,67.5970883 C105.120985,67.5970883 99.3600768,63.9783226 96.1884574,58.6385634 C93.016838,63.9783226 87.2507299,67.5970883 80.5903292,67.5970883 C73.9299284,67.5970883 68.1638203,63.9783226 64.9922009,58.6385634 C61.8205815,63.9783226 56.0544735,67.5970883 49.3940727,67.5970883 C42.733672,67.5970883 36.9675639,63.9783226 33.7959445,58.6385634 C30.6243251,63.9783226 24.858217,67.5970883 18.1978163,67.5970883 C17.308723,67.5970883 16.4560253,67.4619046 15.5981282,67.3371195 L15.5981282,124.785026 Z M57.1931368,109.192097 L25.9968804,109.192097 L25.9968804,83.1952166 L57.1931368,83.1952166 L57.1931368,109.192097 Z M51.9937607,88.3945926 L31.1962564,88.3945926 L31.1962564,103.992721 L51.9937607,103.992721 L51.9937607,88.3945926 Z" id="path-21"></path>
        <filter x="-11.5%" y="-8.8%" width="123.1%" height="124.0%" filterUnits="objectBoundingBox" id="filter-22">
            <feMorphology radius="1" operator="dilate" in="SourceAlpha" result="shadowSpreadOuter1"></feMorphology>
            <feOffset dx="0" dy="4" in="shadowSpreadOuter1" result="shadowOffsetOuter1"></feOffset>
            <feGaussianBlur stdDeviation="4" in="shadowOffsetOuter1" result="shadowBlurOuter1"></feGaussianBlur>
            <feComposite in="shadowBlurOuter1" in2="SourceAlpha" operator="out" result="shadowBlurOuter1"></feComposite>
            <feColorMatrix values="0 0 0 0 0   0 0 0 0 0   0 0 0 0 0  0 0 0 0.5 0" type="matrix" in="shadowBlurOuter1"></feColorMatrix>
        </filter>
        <polygon id="path-23" points="124.785026 46.799584 5.19937607 46.799584 5.19937607 46.799584 0 46.799584 15.5981282 0.0103987521 15.5981282 0.00519937607 108.443387 0.00519937607 108.443387 0 89.6892373 0 114.386274 0 129.984402 46.7943847 124.785026 46.799584"></polygon>
        <filter x="-10.8%" y="-21.4%" width="121.5%" height="159.8%" filterUnits="objectBoundingBox" id="filter-24">
            <feOffset dx="0" dy="4" in="SourceAlpha" result="shadowOffsetOuter1"></feOffset>
            <feGaussianBlur stdDeviation="4" in="shadowOffsetOuter1" result="shadowBlurOuter1"></feGaussianBlur>
            <feColorMatrix values="0 0 0 0 0   0 0 0 0 0   0 0 0 0 0  0 0 0 0.5 0" type="matrix" in="shadowBlurOuter1"></feColorMatrix>
        </filter>
        <linearGradient x1="56.1636884%" y1="31.8099741%" x2="50%" y2="256.116655%" id="linearGradient-25">
            <stop stop-color="#F5515F" offset="0%"></stop>
            <stop stop-color="#9F041B" offset="100%"></stop>
        </linearGradient>
    </defs>
    <g id="Page-1" stroke="none" stroke-width="1" fill="none" fill-rule="evenodd">
        <g id="raed" filter="url(#filter-1)" transform="translate(95.000000, -16.000000)">
            <g id="Doc-Copy" transform="translate(1310.000000, 1730.000000)">
                <g id="Oval">
                    <use fill="black" fill-opacity="1" filter="url(#filter-3)" xlink:href="#path-2"></use>
                    <use fill="#455A64" fill-rule="evenodd" xlink:href="#path-2"></use>
                </g>
                <g id="Oval">
                    <use fill="black" fill-opacity="1" filter="url(#filter-5)" xlink:href="#path-4"></use>
                    <use fill="#455A64" fill-rule="evenodd" xlink:href="#path-4"></use>
                </g>
                <g id="Shape">
                    <use fill="black" fill-opacity="1" filter="url(#filter-7)" xlink:href="#path-6"></use>
                    <use fill="#455A64" fill-rule="evenodd" xlink:href="#path-6"></use>
                </g>
                <g id="Shape">
                    <use fill="black" fill-opacity="1" filter="url(#filter-9)" xlink:href="#path-8"></use>
                    <use fill="#455A64" fill-rule="evenodd" xlink:href="#path-8"></use>
                </g>
            </g>
            <g id="Cart-Copy">
                <use fill="black" fill-opacity="1" filter="url(#filter-11)" xlink:href="#path-10"></use>
                <use fill="#455A64" fill-rule="evenodd" xlink:href="#path-10"></use>
                <use stroke="#979797" stroke-width="2" xlink:href="#path-10"></use>
                <use stroke="#979797" stroke-width="2" xlink:href="#path-10"></use>
                <use stroke="#979797" stroke-width="2" xlink:href="#path-10"></use>
                <use stroke="#455A64" stroke-width="6" xlink:href="#path-10"></use>
            </g>
            <g id="shopify-black-copy" filter="url(#filter-12)" transform="translate(318.000000, 960.000000)" fill="#445963" fill-rule="nonzero">
                <path d="M95.479119,21.4695975 C97.9137002,23.8787737 100.67273,26.6074792 100.67273,26.6074792 C100.67273,26.6074792 112.033121,27.4454375 112.569034,27.4914792 C113.109564,27.5375208 113.760973,27.9472917 113.862611,28.6885625 C113.964249,29.4298333 130,137.485021 130,137.485021 L90.6505074,145.967326 L95.479119,21.4695975 Z M89.4428043,17.3767819 C89.1413219,17.4155029 88.8798176,17.4744362 88.6978919,17.5280625 C88.6008748,17.5556875 86.9746614,18.0575417 84.2812471,18.8862917 C81.6432717,11.32625 76.9910081,4.3785625 68.8091269,4.3785625 C68.5827505,4.3785625 68.3471348,4.38777083 68.1161371,4.40158333 C65.7876979,1.33520833 62.9048643,0 60.4147267,0 C41.3483076,0 32.2378179,23.7575 29.3827083,35.8250208 C21.9723524,38.1132917 16.7102588,39.7385625 16.0403719,39.9503542 C11.9009212,41.244125 11.7715619,41.3730417 11.2310312,45.2543542 C10.8198598,48.1964167 0,131.591687 0,131.591687 L84.3135862,147.333333 L84.4032243,147.314011 L89.4428043,17.3767819 Z M67.4924467,23.2418333 C67.4924467,23.5318958 67.4878286,23.7989375 67.4878286,24.0659792 C62.8448074,25.497875 57.8044721,27.0540833 52.7502764,28.6148958 C55.5869074,17.7030208 60.9044398,12.43125 65.5567002,10.44225 C66.7255395,13.3705 67.4924467,17.5741042 67.4924467,23.2418333 Z M59.8880564,5.0968125 C60.7150205,5.0968125 61.5419876,5.37766667 62.3366157,5.92095833 C56.2244583,8.78475 49.6780267,16.0040833 46.9106919,30.415125 C42.8682614,31.6628542 38.9182269,32.8829583 35.2638681,34.0109792 C38.5024343,23.0162292 46.1946055,5.0968125 59.8880564,5.0968125 Z M63.1728221,69.3479583 C63.1728221,69.3479583 58.2387433,66.7235833 52.191264,66.7235833 C43.3210143,66.7235833 42.8728795,72.2716042 42.8728795,73.6666667 C42.8728795,81.2957708 62.8217076,84.2194167 62.8217076,102.083583 C62.8217076,116.1355 53.8775374,125.187292 41.8149179,125.187292 C27.3407024,125.187292 19.9395857,116.209167 19.9395857,116.209167 L23.8156998,103.451021 C23.8156998,103.451021 31.4247143,109.961312 37.8464048,109.961312 C42.0366762,109.961312 43.7460462,106.669333 43.7460462,104.265958 C43.7460462,94.3163542 27.3776595,93.86975 27.3776595,77.5203542 C27.3776595,63.7631042 37.2873955,50.4478542 57.2916593,50.4478542 C64.997691,50.4478542 68.8091269,52.6486458 68.8091269,52.6486458 L63.1728221,69.3479583 Z M72.4865855,22.5235833 C72.4865855,22.0217292 72.4912036,21.5290833 72.4912036,20.9903958 C72.4912036,16.2941458 71.835174,12.5095208 70.7864517,9.51220833 C75.004441,10.0370833 77.813354,14.8208125 79.6197443,20.3227917 C77.503821,20.9765833 75.09684,21.7178542 72.4865855,22.5235833 Z" id="Shopify"></path>
            </g>
            <g id="SOS-Copy" transform="translate(751.000000, 1999.904762) scale(-1, 1) translate(-751.000000, -1999.904762) translate(686.000000, 1938.000000)" fill="#455A64">
                <g id="Outline">
                    <g id="Group" filter="url(#filter-13)">
                        <path d="M76.7422525,0 C69.6910053,0 63.968254,5.72275132 63.968254,12.7739985 L89.5162509,12.7739985 C89.5162509,5.71636432 83.7998866,0 76.7422525,0 Z" id="Shape"></path>
                        <path d="M44.7089947,91.477551 L44.7089947,45.5933485 C44.7089947,42.0677249 41.847619,39.2063492 38.3219955,39.2063492 L25.547997,39.2063492 C23.8554422,39.2063492 22.2267574,39.8769841 21.0323885,41.07774 L1.87139078,60.2387377 C0.670634921,61.4394936 0,63.0617914 0,64.7543462 L0,103.076342 C0,106.601965 2.86137566,109.463341 6.38699924,109.463341 L19.1609977,109.463341 C19.1609977,98.8800831 27.7451247,90.3023432 38.3219955,90.3023432 C40.5766062,90.3023432 42.7034769,90.7622071 44.7089947,91.477551 Z M31.9349962,71.1413454 L19.1609977,71.1413454 L19.1609977,58.3673469 L31.9349962,58.3673469 L31.9349962,71.1413454 Z" id="Shape"></path>
                        <circle id="Oval" cx="39.5993953" cy="109.758125" r="12.7739985"></circle>
                        <path d="M115.457294,20.6349206 L64.3613001,20.6349206 C57.3164399,20.6349206 51.5873016,26.364059 51.5873016,33.4089191 L51.5873016,95.8609977 C55.4769841,99.3674603 57.9743008,104.400416 57.9743008,110.05291 L77.1352986,110.05291 C77.1352986,99.4696523 85.7194255,90.8919123 96.2962963,90.8919123 C106.879554,90.8919123 115.457294,99.4696523 115.457294,110.05291 L121.844293,110.05291 C125.369917,110.05291 128.231293,107.191534 128.231293,103.665911 L128.231293,33.4089191 C128.231293,26.364059 122.502154,20.6349206 115.457294,20.6349206 Z M109.070295,65.3439153 L96.2962963,65.3439153 L96.2962963,78.1179138 L83.5222978,78.1179138 L83.5222978,65.3439153 L70.7482993,65.3439153 L70.7482993,52.5699169 L83.5222978,52.5699169 L83.5222978,39.7959184 L96.2962963,39.7959184 L96.2962963,52.5699169 L109.070295,52.5699169 L109.070295,65.3439153 Z" id="Shape"></path>
                        <circle id="Oval" cx="97.3771731" cy="109.758125" r="12.7739985"></circle>
                    </g>
                </g>
            </g>
            <g id="plug-copy" filter="url(#filter-14)" transform="translate(1078.441705, 584.441705) rotate(-315.000000) translate(-1078.441705, -584.441705) translate(1024.023100, 519.441705)" fill="#455A64" fill-rule="nonzero" stroke="#455A64" stroke-width="6">
                <path d="M37.936592,90.8340935 L36.8679556,90.8340935 C16.5638641,90.8340935 0,74.2702294 0,53.9661379 L0,32.0590918 C0,28.8531826 2.13727279,26.7159098 5.34318197,26.7159098 L69.4613656,26.7159098 C72.6672748,26.7159098 74.8045476,28.8531826 74.8045476,32.0590918 L74.8045476,53.9661379 C74.8045476,74.2702294 58.2406835,90.8340935 37.936592,90.8340935 Z M10.6863639,37.4022738 L10.6863639,53.9661379 C10.6863639,68.3927292 22.4413643,80.1477295 36.8679556,80.1477295 L37.4022738,80.1477295 C51.8288651,80.1477295 63.5838654,68.3927292 63.5838654,53.9661379 L63.5838654,37.4022738 L10.6863639,37.4022738 Z" id="Shape"></path>
                <path d="M21.3727279,37.4022738 C18.1668187,37.4022738 16.0295459,35.265001 16.0295459,32.0590918 L16.0295459,5.34318197 C16.0295459,2.13727279 18.1668187,0 21.3727279,0 C24.5786371,0 26.7159098,2.13727279 26.7159098,5.34318197 L26.7159098,32.0590918 C26.7159098,35.265001 24.5786371,37.4022738 21.3727279,37.4022738 Z" id="Shape"></path>
                <path d="M53.4318197,37.4022738 C50.2259105,37.4022738 48.0886377,35.265001 48.0886377,32.0590918 L48.0886377,5.34318197 C48.0886377,2.13727279 50.2259105,0 53.4318197,0 C56.6377289,0 58.7750017,2.13727279 58.7750017,5.34318197 L58.7750017,32.0590918 C58.7750017,35.265001 56.6377289,37.4022738 53.4318197,37.4022738 Z" id="Shape"></path>
                <path d="M69.4613656,128.236367 C40.0738648,128.236367 32.0590918,100.451821 31.5247736,85.4909115 C31.5247736,82.2850023 33.6620464,80.1477295 36.8679556,80.1477295 C36.8679556,80.1477295 36.8679556,80.1477295 36.8679556,80.1477295 C39.5395466,80.1477295 42.2111376,82.2850023 42.2111376,85.4909115 C42.2111376,86.5595479 42.7454557,117.550003 69.4613656,117.550003 C95.6429572,117.550003 96.1772754,86.5595479 96.1772754,85.4909115 L96.1772754,48.0886377 C96.1772754,44.8827285 98.3145482,42.7454557 101.520457,42.7454557 C104.726367,42.7454557 106.863639,44.8827285 106.863639,48.0886377 L106.863639,85.4909115 C106.863639,100.451821 98.8488664,128.236367 69.4613656,128.236367 Z" id="Shape"></path>
            </g>
            <g id="water-tap-copy" filter="url(#filter-15)" transform="translate(132.000000, 1666.000000)" fill="#445963" fill-rule="nonzero">
                <path d="M25.74,36.4 L2.86,36.4 C1.28128,36.4 0,37.68128 0,39.26 L0,62.14 C0,63.71872 1.28128,65 2.86,65 L25.74,65 C27.31872,65 28.6,63.71872 28.6,62.14 L28.6,39.26 C28.6,37.68128 27.31872,36.4 25.74,36.4 Z" id="Shape"></path>
                <path d="M63.1428571,23.4 L51.2571429,23.4 C43.0678857,23.4 36.4,30.2068 36.4,38.5666667 L36.4,62.8333333 C36.4,71.1932 43.0678857,78 51.2571429,78 L63.1428571,78 C71.3321143,78 78,71.1932 78,62.8333333 L78,38.5666667 C78,30.2068 71.3321143,23.4 63.1428571,23.4 Z" id="Shape"></path>
                <path d="M97.825,36.4 L86.125,36.4 C84.5104,36.4 83.2,37.7589333 83.2,39.4333333 L83.2,63.7 C83.2,65.3744 84.5104,66.7333333 86.125,66.7333333 L91.975,66.7333333 C96.81295,66.7333333 100.75,70.8162 100.75,75.8333333 L100.75,87.9666667 C100.75,89.6410667 102.0604,91 103.675,91 L127.075,91 C128.6896,91 130,89.6410667 130,87.9666667 L130,69.7666667 C130,51.3664667 115.56805,36.4 97.825,36.4 Z" id="Shape"></path>
                <path d="M113.34336,102.61009 C111.3528,105.616709 101.4,120.971305 101.4,128.115747 C101.4,136.319947 107.81784,143 115.7,143 C123.58216,143 130,136.319947 130,128.115747 C130,120.971305 120.0472,105.616709 118.05664,102.61009 C116.98128,100.996637 114.41872,100.996637 113.34336,102.61009 Z" id="Shape"></path>
                <path d="M71.9333333,0 C69.7955556,0 61.0422222,1.06773333 54.6,2.77246667 C48.1577778,1.06773333 39.4044444,0 37.2666667,0 C32.4884444,0 28.6,4.08286667 28.6,9.1 C28.6,14.1171333 32.4884444,18.2 37.2666667,18.2 C39.1155556,18.2 45.916,17.3992 51.8844444,16.0766667 C52.26,17.3021333 53.3115556,18.2 54.6,18.2 C55.8884444,18.2 56.94,17.3021333 57.3155556,16.0766667 C63.284,17.3992 70.0844444,18.2 71.9333333,18.2 C76.7115556,18.2 80.6,14.1171333 80.6,9.1 C80.6,4.08286667 76.7115556,0 71.9333333,0 Z M71.9333333,12.1333333 C70.2057778,12.1333333 61.3426667,11.0474 55.3453333,9.36086667 C55.1026667,9.29413333 54.8542222,9.25773333 54.6,9.25773333 C54.3457778,9.25773333 54.0973333,9.29413333 53.8546667,9.36086667 C47.8573333,11.0474 38.9942222,12.1333333 37.2666667,12.1333333 C35.672,12.1333333 34.3777778,10.7744 34.3777778,9.1 C34.3777778,7.4256 35.672,6.06666667 37.2666667,6.06666667 C38.9942222,6.06666667 47.8573333,7.1526 53.8546667,8.83913333 C54.34,8.9726 54.86,8.9726 55.3453333,8.83913333 C61.3426667,7.1526 70.2057778,6.06666667 71.9333333,6.06666667 C73.528,6.06666667 74.8222222,7.4256 74.8222222,9.1 C74.8222222,10.7744 73.528,12.1333333 71.9333333,12.1333333 Z" id="Shape"></path>
            </g>
            <g id="Food-Copy" transform="translate(676.000000, 712.000000)">
                <g id="Shape">
                    <use fill="black" fill-opacity="1" filter="url(#filter-17)" xlink:href="#path-16"></use>
                    <use fill="#455A64" fill-rule="evenodd" xlink:href="#path-16"></use>
                </g>
                <g id="Shape">
                    <use fill="black" fill-opacity="1" filter="url(#filter-19)" xlink:href="#path-18"></use>
                    <use fill="#455A64" fill-rule="evenodd" xlink:href="#path-18"></use>
                </g>
            </g>
            <g id="Car-Copy" filter="url(#filter-20)" transform="translate(1388.000000, 670.000000)" fill="#445963" fill-rule="nonzero">
                <path d="M34.8214286,48.75 C24.5806122,48.75 16.25,57.0806122 16.25,67.3214286 C16.25,77.5622449 24.5806122,85.8928571 34.8214286,85.8928571 C45.0622449,85.8928571 53.3928571,77.5622449 53.3928571,67.3214286 C53.3928571,57.0806122 45.0622449,48.75 34.8214286,48.75 Z" id="Shape"></path>
                <path d="M95.1785714,48.75 C84.9377551,48.75 76.6071429,57.0806122 76.6071429,67.3214286 C76.6071429,77.5622449 84.9377551,85.8928571 95.1785714,85.8928571 C105.419388,85.8928571 113.75,77.5622449 113.75,67.3214286 C113.75,57.0806122 105.419388,48.75 95.1785714,48.75 Z" id="Shape"></path>
                <path d="M123.521667,22.8696429 L100.7825,4.13035714 C97.5541667,1.46785714 93.45375,0 89.2504167,0 L35.2083333,0 C30.5445833,0 26.2545833,1.99285714 23.2916667,5.35714286 L40.625,5.35714286 C42.12,5.35714286 43.3333333,6.55714286 43.3333333,8.03571429 C43.3333333,9.51428571 42.12,10.7142857 40.625,10.7142857 L19.9929167,10.7142857 L2.70833333,10.7142857 C1.21333333,10.7142857 0,11.9142857 0,13.3928571 C0,14.8714286 1.21333333,16.0714286 2.70833333,16.0714286 L17.2845833,16.0714286 L14.57625,21.4285714 L29.7916667,21.4285714 C31.2866667,21.4285714 32.5,22.6285714 32.5,24.1071429 C32.5,25.5857143 31.2866667,26.7857143 29.7916667,26.7857143 L11.8679167,26.7857143 L2.70833333,26.7857143 C1.21333333,26.7857143 0,27.9857143 0,29.4642857 C0,30.9428571 1.21333333,32.1428571 2.70833333,32.1428571 L9.15958333,32.1428571 L6.45125,37.5 L18.9583333,37.5 C20.4533333,37.5 21.6666667,38.7 21.6666667,40.1785714 C21.6666667,41.6571429 20.4533333,42.8571429 18.9583333,42.8571429 L3.74291667,42.8571429 L2.70833333,42.8571429 C1.21333333,42.8571429 0,44.0571429 0,45.5357143 C0,46.5160714 0.563333333,47.3410714 1.35958333,47.8071429 C0.52,49.7571429 0,51.8464286 0,53.9625 C0,59.0839286 2.54583333,63.8892857 6.81416667,66.825 C7.605,67.3714286 8.62875,67.4517857 9.51166667,67.0553571 C10.3891667,66.6482143 10.9795833,65.8178571 11.0608333,64.8642857 C12.1820833,52.3178571 22.5604167,42.8571429 35.2083333,42.8571429 C48.6470833,42.8571429 59.5833333,53.6732143 59.5833333,66.9642857 C59.5833333,68.4428571 60.7966667,69.6428571 62.2916667,69.6428571 L67.7083333,69.6428571 C69.2033333,69.6428571 70.4166667,68.4428571 70.4166667,66.9642857 C70.4166667,53.6732143 81.3529167,42.8571429 94.7916667,42.8571429 C105.392083,42.8571429 114.687083,49.6553571 117.920833,59.7696429 C118.25125,60.8089286 119.188333,61.5482143 120.287917,61.6339286 C121.365833,61.7196429 122.432917,61.1357143 122.925833,60.1607143 L125.650417,54.7714286 C128.494167,49.1464286 130,42.8464286 130,36.5571429 C130,31.2482143 127.638333,26.2607143 123.521667,22.8696429 Z M119.015,35.7107143 C118.635833,36.7821429 117.612083,37.5 116.458333,37.5 L83.9583333,37.5 C83.1241667,37.5 82.33875,37.1196429 81.8241667,36.4714286 C81.3095833,35.8232143 81.1308333,34.9767857 81.33125,34.1732143 L86.7479167,12.7446429 C86.97,11.8553571 87.63625,11.1482143 88.5083333,10.8535714 C89.3695833,10.5589286 90.3445833,10.725 91.065,11.2982143 L118.148333,32.7267857 C119.0475,33.4392857 119.394167,34.6339286 119.015,35.7107143 Z" id="Shape"></path>
            </g>
            <g id="Home-Copy" transform="translate(2.000000, 830.000000)">
                <g id="Shape">
                    <use fill="black" fill-opacity="1" filter="url(#filter-22)" xlink:href="#path-21"></use>
                    <use stroke="#455A64" stroke-width="2" fill="#455A64" fill-rule="evenodd" xlink:href="#path-21"></use>
                </g>
                <g id="Path">
                    <use fill="black" fill-opacity="1" filter="url(#filter-24)" xlink:href="#path-23"></use>
                    <use fill="#455A64" fill-rule="evenodd" xlink:href="#path-23"></use>
                </g>
            </g>
            <path d="M1827.85382,1473.35752 C1790.23755,1510.82787 1752.9942,1540.03968 1716.12264,1560.99382 C1679.25108,1581.94796 1636.66136,1595.39206 1588.3522,1601.3265 C1544.24384,1606.74492 1504.42183,1602.78463 1468.88496,1589.44552 C1433.34809,1576.1064 1404.71732,1555.6267 1382.99177,1528.00578 C1361.26622,1500.38486 1348.26309,1469.13325 1343.98202,1434.25001 C1338.20514,1387.17864 1348.19199,1345.21059 1373.94288,1308.34458 C1399.69376,1271.47858 1437.91725,1244.17277 1488.61448,1226.42632 C1499.22707,1222.56294 1525.62548,1213.56084 1567.81052,1199.41976 C1609.99554,1185.27868 1646.07413,1172.63443 1676.04734,1161.48664 C1706.02055,1150.33886 1738.42536,1137.29269 1773.26272,1122.34775 C1765.59175,1077.21553 1752.36756,1045.0312 1733.58974,1025.79381 C1714.81192,1006.55642 1680.00872,1000.05985 1629.17909,1006.30392 C1585.49082,1011.67073 1553.36797,1021.80264 1532.80959,1036.69997 C1512.25121,1051.5973 1495.59158,1072.20135 1482.8302,1098.51274 C1470.06881,1124.82412 1460.90975,1142.26708 1455.35273,1150.84212 C1449.79571,1159.41716 1436.30538,1165.0205 1414.88132,1167.6523 C1395.55766,1170.02608 1378.09896,1165.87826 1362.50471,1155.20873 C1346.91045,1144.5392 1337.92713,1129.53822 1335.55448,1110.20534 C1331.84077,1079.94517 1338.94215,1049.21013 1356.85882,1017.99929 C1374.77548,986.788445 1405.28292,959.150665 1448.38202,935.085121 C1491.48113,911.019579 1546.84626,894.832935 1614.47907,886.524706 C1690.0934,877.236006 1750.62981,878.864979 1796.09013,891.411679 C1841.55044,903.958379 1875.57942,928.467662 1898.17811,964.940262 C1920.77678,1001.41286 1935.99592,1051.58969 1943.83597,1115.47226 C1948.78759,1155.81914 1952.88621,1190.08436 1956.13198,1218.26892 C1959.37776,1246.45348 1962.9053,1277.80258 1966.71472,1312.31715 C1970.68633,1344.67871 1980.18144,1377.74775 1995.20034,1411.52523 C2010.21924,1445.30272 2018.34752,1467.23449 2019.58543,1477.32121 C2021.75174,1494.97297 2015.42818,1512.06761 2000.61454,1528.60562 C1985.80087,1545.14364 1967.89231,1554.70261 1946.88834,1557.28279 C1929.245,1559.45016 1910.79328,1553.29128 1891.53263,1538.80598 C1872.27199,1524.32068 1851.04593,1502.50474 1827.85382,1473.35752 Z M1788.64441,1229.34128 C1764.57439,1241.68368 1729.12219,1255.95742 1682.28677,1272.16292 C1635.45136,1288.36843 1603.08896,1300.0229 1585.19862,1307.1267 C1567.30828,1314.23049 1550.82572,1325.85398 1535.75044,1341.99753 C1520.67516,1358.14106 1514.68499,1378.82092 1517.77975,1404.03772 C1520.97766,1430.09509 1533.57016,1451.05186 1555.5576,1466.90865 C1577.54504,1482.76545 1604.50137,1488.73281 1636.42742,1484.81092 C1670.45387,1480.63099 1700.93882,1469.31381 1727.88322,1450.859 C1754.8276,1432.40418 1773.57656,1410.58361 1784.13067,1385.3966 C1796.4757,1357.4299 1798.98604,1313.60732 1791.66179,1253.92754 L1788.64441,1229.34128 Z M1133.51241,911.678519 C1147.91435,757.984436 1168.31681,681.138548 1194.72038,681.138548 C1203.12151,679.937813 1212.72266,686.541756 1223.52412,700.950576 C1249.9277,730.968953 1264.0294,838.132944 1265.82964,1022.44577 C1267.62988,1206.75859 1258.32876,1387.16632 1237.926,1563.67437 C1217.52324,1740.18242 1192.92028,1833.83835 1164.11639,1844.64497 C1138.91298,1851.84938 1120.01071,1811.62535 1107.40901,1723.97169 C1094.80731,1636.31804 1090.90684,1518.64777 1095.70749,1370.95736 C1100.50813,1223.26696 1113.10965,1070.17554 1133.51241,911.678519 Z M640.24818,1003.13405 C649.849478,991.126695 660.650777,979.719884 672.652399,968.913269 C684.654022,958.106653 696.35543,949.701634 707.756971,943.697959 C719.158512,937.694284 728.45963,934.692492 735.660604,934.692492 C777.666283,934.692492 801.069097,955.10468 805.869745,995.929671 C810.670395,1036.75466 795.668591,1106.39625 760.863885,1204.85652 C740.461127,1262.4918 725.459323,1318.02497 715.858025,1371.45767 C706.256727,1424.89038 705.656655,1461.21206 714.057791,1480.42383 C718.858439,1499.63559 715.858079,1532.35513 705.056619,1578.58343 C694.255158,1624.81172 677.453139,1667.73736 654.650055,1707.36161 C633.047134,1750.58807 614.444898,1798.61675 598.842788,1851.4491 C583.240679,1904.28144 575.439741,1946.30653 575.439741,1977.52564 C575.439741,2021.95283 567.038731,2053.47165 550.23646,2072.08305 C533.434188,2090.69445 505.230797,2100 465.625442,2100 C429.620574,2100 405.617688,2096.09767 393.616066,2088.29289 C381.614444,2080.48811 374.413577,2062.47736 372.013254,2034.26009 C369.612929,2006.04281 373.813434,1964.3179 384.614895,1909.08409 C401.417166,1826.23337 401.417166,1762.29519 384.614895,1717.26763 C367.812622,1672.24006 318.606707,1603.49902 236.995672,1511.04242 C185.388695,1457.00935 140.68332,1404.77815 102.878209,1354.34728 C65.0730977,1303.91641 46.1708255,1271.49706 46.1708255,1257.08824 C46.1708255,1233.07353 35.9695992,1189.24736 15.5668405,1125.6084 C-9.63656717,1064.37092 -4.23591795,1032.55192 31.7689503,1030.15045 C68.9739807,1028.94971 112.179174,1054.76513 161.385828,1107.59747 C191.389885,1140.01731 214.792698,1176.03882 231.594969,1215.66308 C251.997728,1264.89321 277.200758,1312.9219 307.204815,1359.75057 C337.208872,1406.57922 363.011973,1439.59895 384.614895,1458.81071 C423.020087,1492.43128 448.823189,1505.63918 462.024973,1498.43477 C480.027408,1488.82888 502.230077,1428.79303 528.633647,1318.32541 L550.23646,1226.46964 C579.040354,1108.79761 609.043961,1034.35316 640.24818,1003.13405 Z M877.879122,997.730765 C892.28107,844.036683 912.683522,767.190794 939.087091,767.190794 C947.488227,765.990059 957.089382,772.594003 967.890842,787.002823 C994.294412,817.021198 1008.39611,924.18519 1010.19635,1108.49802 C1011.99659,1292.81084 1002.69548,1473.21857 982.292717,1649.72662 C961.889958,1826.23466 937.287001,1919.89059 908.483107,1930.69721 C883.279698,1937.90162 864.377428,1897.67759 851.775723,1810.02394 C839.17402,1722.37028 835.27355,1604.70002 840.074199,1457.00961 C844.874849,1309.31921 857.476363,1156.22779 877.879122,997.730765 Z" id="ytlla" fill="#34424C" fill-rule="nonzero"></path>
            <g id="Face" transform="translate(1528.000000, 0.000000)" fill-rule="nonzero">
                <path d="M81.0016176,479.027512 C81.0016176,788.778108 478.612673,678.260314 478.612673,1054.70423 C478.612673,1054.70423 876.223728,788.778108 876.223728,479.027512 C876.223728,246.714564 700.138832,62.0555556 478.612673,62.0555556 C257.086514,62.0555556 81.0016176,246.714564 81.0016176,479.027512 Z" id="path-2" fill="url(#linearGradient-25)" transform="translate(478.612673, 558.379892) rotate(-10.000000) translate(-478.612673, -558.379892) "></path>
                <ellipse id="Oval-2" fill="#000000" transform="translate(399.464405, 479.665157) scale(-1, 1) rotate(-5.000000) translate(-399.464405, -479.665157) " cx="399.464405" cy="479.665157" rx="74.6344822" ry="162.14828"></ellipse>
                <ellipse id="Oval-2-Copy" fill="#FFFFFF" transform="translate(403.366181, 493.417378) rotate(5.000000) translate(-403.366181, -493.417378) " cx="403.366181" cy="493.417378" rx="66.5910122" ry="144.840511"></ellipse>
                <ellipse id="Oval-3-Copy" fill="#000000" transform="translate(393.244910, 558.522873) rotate(8.000000) translate(-393.244910, -558.522873) " cx="393.24491" cy="558.522873" rx="27.0617349" ry="41.0367383"></ellipse>
                <ellipse id="Oval-2" fill="#000000" transform="translate(525.515672, 497.311247) rotate(15.000000) translate(-525.515672, -497.311247) " cx="525.515672" cy="497.311247" rx="74.6344822" ry="162.14828"></ellipse>
                <ellipse id="Oval-2-Copy" fill="#FFFFFF" transform="translate(517.626841, 509.990826) rotate(15.000000) translate(-517.626841, -509.990826) " cx="517.626841" cy="509.990826" rx="66.5910122" ry="144.840511"></ellipse>
                <ellipse id="Oval-3" fill="#000000" transform="translate(506.973371, 581.520610) rotate(15.000000) translate(-506.973371, -581.520610) " cx="506.973371" cy="581.52061" rx="27.0617349" ry="41.0367383"></ellipse>
                <path d="M450.998475,273.397104 C440.576261,240.484828 417.522111,200.179212 369.917024,200.179212 C322.311936,200.179212 279.93049,241.458355 283.696895,315.847217 C283.71303,316.165893 284.869572,315.133385 285.555059,312.797059 C300.373611,262.291457 331.064445,224.492797 369.917024,223.74914 C387.641157,223.409893 405.311618,229.948348 419.342275,240.349941 C438.433072,254.502857 451.10774,273.742151 450.998475,273.397104 Z" id="Oval-4" fill="#000000"></path>
                <path d="M698.163574,337.359041 C687.741362,304.446761 664.687212,264.141148 617.082122,264.141148 C569.477035,264.141148 527.095589,305.420291 530.861996,379.809152 C530.87813,380.12783 532.034673,379.095319 532.720158,376.758996 C547.53871,326.253394 578.229543,288.454733 617.082122,287.711077 C634.806256,287.371829 652.476719,293.910283 666.507374,304.311877 C685.598173,318.464791 698.272839,337.704087 698.163574,337.359041 Z" id="Oval-4-Copy" fill="#000000" transform="translate(614.396431, 322.003374) scale(-1, 1) rotate(-29.000000) translate(-614.396431, -322.003374) "></path>
                <path d="M634.860001,743.397 C619.68504,729.547593 603.68441,713.689312 555.760305,705.911399 C507.8362,698.133488 434.813696,751.660708 455.525387,780.109683 C458.017437,783.532692 462.451386,781.591724 463.203498,780.120098 C479.462327,748.307192 509.247222,722.690175 551.876049,722.221752 C571.322867,722.008066 590.710796,726.126563 606.10515,732.678408 C627.051465,741.593172 635.081649,743.599287 634.860001,743.397 Z" id="Oval-4-Copy-2" fill="#000000" transform="translate(543.388778, 743.582298) rotate(-167.000000) translate(-543.388778, -743.582298) "></path>
                <polygon id="Rectangle" fill="#000000" transform="translate(648.022192, 732.465313) rotate(-27.000000) translate(-648.022192, -732.465313) " points="633.604631 695.61889 651.94793 698.195857 662.439752 769.311736 633.637437 768.5333"></polygon>
            </g>
        </g>
    </g>
</svg>