<?xml version="1.0" encoding="UTF-8"?>
<svg width="32px" height="32px" viewBox="0 0 32 32" version="1.1" xmlns="http://www.w3.org/2000/svg" xmlns:xlink="http://www.w3.org/1999/xlink">
    <!-- Generator: Sketch 48.2 (47327) - http://www.bohemiancoding.com/sketch -->
    <title>Icons/research-icon</title>
    <desc>Created with Sketch.</desc>
    <defs></defs>
    <g id="Assets" stroke="none" stroke-width="1" fill="none" fill-rule="evenodd">
        <g id="Icons/research-icon" fill="#FFFFFF" fill-rule="nonzero">
            <path d="M11,4 C9.03125,4 7.460938,5.441406 7.125,7.3125 C5.234375,7.789063 3.59375,9.019531 2.875,10.96875 L2.84375,10.96875 L0.71875,16.9375 C0.265625,17.863281 0,18.902344 0,20 C0,23.855469 3.144531,27 7,27 C10.472656,27 13.367188,24.449219 13.90625,21.125 C14.449219,21.660156 15.1875,22 16,22 C16.8125,22 17.550781,21.660156 18.09375,21.125 C18.632813,24.449219 21.527344,27 25,27 C28.855469,27 32,23.855469 32,20 C32,19.027344 31.800781,18.09375 31.4375,17.25 L29.15625,10.875 L29.125,10.84375 L29.125,10.8125 C28.394531,9.039063 26.777344,7.800781 24.875,7.3125 C24.539063,5.441406 22.96875,4 21,4 C19.144531,4 17.636719,5.285156 17.1875,7 L14.8125,7 C14.363281,5.285156 12.855469,4 11,4 Z M11,6 C12.191406,6 13,6.808594 13,8 L13,9 L19,9 L19,8 C19,6.808594 19.808594,6 21,6 C22.191406,6 23,6.808594 23,8 L23,8.90625 L23.90625,9 C25.390625,9.15625 26.671875,10.191406 27.25,11.53125 C27.257813,11.550781 27.273438,11.574219 27.28125,11.59375 L28.03125,13.71875 C27.113281,13.273438 26.085938,13 25,13 C22.074219,13 19.574219,14.816406 18.53125,17.375 C17.996094,16.542969 17.050781,16 16,16 C14.949219,16 14.003906,16.542969 13.46875,17.375 C12.425781,14.816406 9.925781,13 7,13 C5.929688,13 4.910156,13.253906 4,13.6875 L4.75,11.65625 L4.75,11.625 C5.332031,10.078125 6.558594,9.160156 8.09375,9 L9,8.90625 L9,8 C9,6.808594 9.808594,6 11,6 Z M7,15 C9.773438,15 12,17.226563 12,20 C12,22.773438 9.773438,25 7,25 C4.226563,25 2,22.773438 2,20 C2,19.292969 2.175781,18.640625 2.4375,18.03125 C2.453125,17.992188 2.453125,17.945313 2.46875,17.90625 C3.257813,16.191406 4.980469,15 7,15 Z M25,15 C27.773438,15 30,17.226563 30,20 C30,22.773438 27.773438,25 25,25 C22.226563,25 20,22.773438 20,20 C20,17.226563 22.226563,15 25,15 Z M16,18 C16.5625,18 17,18.4375 17,19 C17,19.5625 16.5625,20 16,20 C15.4375,20 15,19.5625 15,19 C15,18.4375 15.4375,18 16,18 Z" id="icon"></path>
        </g>
    </g>
</svg>