<?xml version="1.0" encoding="UTF-8"?>
<svg width="32px" height="32px" viewBox="0 0 32 32" version="1.1" xmlns="http://www.w3.org/2000/svg" xmlns:xlink="http://www.w3.org/1999/xlink">
    <!-- Generator: Sketch 48.2 (47327) - http://www.bohemiancoding.com/sketch -->
    <title>Icons/rocket-icon</title>
    <desc>Created with Sketch.</desc>
    <defs></defs>
    <g id="Assets" stroke="none" stroke-width="1" fill="none" fill-rule="evenodd">
        <g id="Icons/rocket-icon" fill="#FFFFFF" fill-rule="nonzero">
            <path d="M25.71875,4 C25.023438,4 24.054688,4.03125 23.03125,4.125 C20.984375,4.316406 18.621094,4.660156 17.15625,6.125 C15.925781,7.355469 13.382813,10.621094 11.03125,13.6875 C10.566406,14.292969 10.585938,14.28125 10.15625,14.84375 L8.4375,14.75 C7.160156,14.683594 5.929688,15.222656 5.125,16.21875 L3.03125,18.78125 L2,20.09375 L3.625,20.40625 L6.90625,21.0625 L10.75,24.90625 L11.40625,28.1875 L11.75,29.8125 L13.03125,28.78125 L15.59375,26.6875 C16.589844,25.882813 17.128906,24.652344 17.0625,23.375 L16.96875,21.6875 C17.550781,21.246094 17.53125,21.257813 18.15625,20.78125 C21.230469,18.425781 24.507813,15.898438 25.71875,14.6875 C27.171875,13.234375 27.496094,10.835938 27.6875,8.78125 C27.878906,6.726563 27.78125,4.96875 27.78125,4.96875 L27.75,4.0625 L26.84375,4.03125 C26.84375,4.03125 26.414063,4 25.71875,4 Z M24.8125,6 C25.210938,6 25.492188,6.023438 25.78125,6.03125 C25.792969,6.613281 25.816406,7.21875 25.6875,8.59375 C25.511719,10.488281 24.933594,12.597656 24.28125,13.25 C23.390625,14.140625 20,16.839844 16.9375,19.1875 C14.230469,21.261719 12.324219,22.71875 11.78125,23.125 L8.71875,20.0625 C9.128906,19.511719 10.53125,17.597656 12.59375,14.90625 C14.9375,11.851563 17.644531,8.449219 18.5625,7.53125 C19.246094,6.847656 21.332031,6.269531 23.21875,6.09375 C23.902344,6.03125 24.414063,6 24.8125,6 Z M20.25,9.53125 C19.132813,9.53125 18.25,10.445313 18.25,11.5625 C18.25,12.679688 19.132813,13.59375 20.25,13.59375 C21.367188,13.59375 22.28125,12.679688 22.28125,11.5625 C22.28125,10.445313 21.367188,9.53125 20.25,9.53125 Z M8.3125,16.75 L8.6875,16.78125 C8.085938,17.578125 7.101563,18.855469 6.96875,19.03125 L5.625,18.75 L6.65625,17.5 C7.058594,17.003906 7.671875,16.714844 8.3125,16.75 Z M6.03125,21.9375 C5.175781,22.792969 4.6875,23.976563 4.34375,24.96875 C4,25.960938 3.84375,26.78125 3.84375,26.78125 L3.53125,28.25 L5,27.96875 C5,27.96875 5.796875,27.832031 6.78125,27.5 C7.765625,27.167969 8.949219,26.675781 9.84375,25.78125 L8.4375,24.375 C7.992188,24.820313 7.109375,25.210938 6.3125,25.5 C6.617188,24.667969 7.0625,23.722656 7.4375,23.34375 L6.03125,21.9375 Z M15.03125,23.125 L15.0625,23.5 C15.097656,24.140625 14.84375,24.753906 14.34375,25.15625 L13.0625,26.1875 L12.78125,24.84375 C12.957031,24.714844 14.234375,23.722656 15.03125,23.125 Z" id="icon"></path>
        </g>
    </g>
</svg>