<?xml version="1.0" encoding="UTF-8"?>
<svg width="32px" height="32px" viewBox="0 0 32 32" version="1.1" xmlns="http://www.w3.org/2000/svg" xmlns:xlink="http://www.w3.org/1999/xlink">
    <!-- Generator: Sketch 49.1 (51147) - http://www.bohemiancoding.com/sketch -->
    <title>Icons/store-icon</title>
    <desc>Created with Sketch.</desc>
    <defs></defs>
    <g id="Icons/store-icon" stroke="none" stroke-width="1" fill="none" fill-rule="evenodd">
        <path d="M4,4 L4,7.65625 L1,11.65625 L1,12 C1,13.644531 2.355469,15 4,15 L4,28 L20,28 L20,19 L22,19 L22,28 L28,28 L28,15 C29.644531,15 31,13.644531 31,12 L31,11.65625 L28,7.65625 L28,4 L4,4 Z M6,6 L26,6 L26,7 L6,7 L6,6 Z M5.5,9 L26.5,9 L28.90625,12.21875 C28.796875,12.652344 28.46875,13 28,13 C27.445313,13 27,12.554688 27,12 L25,12 C25,12.554688 24.554688,13 24,13 C23.445313,13 23,12.554688 23,12 L21,12 C21,12.554688 20.554688,13 20,13 C19.445313,13 19,12.554688 19,12 L17,12 C17,12.554688 16.554688,13 16,13 C15.445313,13 15,12.554688 15,12 L13,12 C13,12.554688 12.554688,13 12,13 C11.445313,13 11,12.554688 11,12 L9,12 C9,12.554688 8.554688,13 8,13 C7.445313,13 7,12.554688 7,12 L5,12 C5,12.554688 4.554688,13 4,13 C3.53125,13 3.203125,12.652344 3.09375,12.21875 L5.5,9 Z M6,14.21875 C6.53125,14.699219 7.234375,15 8,15 C8.765625,15 9.46875,14.699219 10,14.21875 C10.53125,14.699219 11.234375,15 12,15 C12.765625,15 13.46875,14.699219 14,14.21875 C14.53125,14.699219 15.234375,15 16,15 C16.765625,15 17.46875,14.699219 18,14.21875 C18.53125,14.699219 19.234375,15 20,15 C20.765625,15 21.46875,14.699219 22,14.21875 C22.53125,14.699219 23.234375,15 24,15 C24.765625,15 25.46875,14.699219 26,14.21875 L26,26 L24,26 L24,17 L18,17 L18,26 L6,26 L6,14.21875 Z M8,17 L8,24 L16,24 L16,17 L8,17 Z M10,19 L14,19 L14,22 L10,22 L10,19 Z" id="icon" fill="#FFFFFF" fill-rule="nonzero"></path>
    </g>
</svg>