<?xml version="1.0" encoding="UTF-8"?>
<svg width="32px" height="32px" viewBox="0 0 32 32" version="1.1" xmlns="http://www.w3.org/2000/svg" xmlns:xlink="http://www.w3.org/1999/xlink">
    <!-- Generator: Sketch 49.1 (51147) - http://www.bohemiancoding.com/sketch -->
    <title>Icons/support-icon-grade</title>
    <desc>Created with Sketch.</desc>
    <defs>
        <linearGradient x1="0%" y1="0%" x2="100%" y2="100%" id="linearGradient-1">
            <stop stop-color="#FFE10A" offset="0%"></stop>
            <stop stop-color="#FF3E5C" offset="100%"></stop>
        </linearGradient>
    </defs>
    <g id="Icons/support-icon" stroke="none" stroke-width="1" fill="none" fill-rule="evenodd">
        <path d="M16,4 C9.382813,4 4,9.382813 4,16 C4,22.617188 9.382813,28 16,28 C22.617188,28 28,22.617188 28,16 C28,9.382813 22.617188,4 16,4 Z M16,6 C16.335938,6 16.671875,6.03125 17,6.0625 L17,9.09375 C16.671875,9.046875 16.339844,9 16,9 C15.660156,9 15.328125,9.046875 15,9.09375 L15,6.0625 C15.328125,6.03125 15.664063,6 16,6 Z M13,6.4375 L13,9.6875 C11.546875,10.382813 10.378906,11.546875 9.6875,13 L6.46875,13 C7.441406,9.875 9.882813,7.414063 13,6.4375 Z M19,6.4375 C22.113281,7.414063 24.585938,9.886719 25.5625,13 L22.3125,13 C21.621094,11.546875 20.453125,10.378906 19,9.6875 L19,6.4375 Z M16,11 C18.773438,11 21,13.226563 21,16 C21,18.773438 18.773438,21 16,21 C13.226563,21 11,18.773438 11,16 C11,13.226563 13.226563,11 16,11 Z M6.0625,15 L9.0625,15 C9.015625,15.324219 9,15.664063 9,16 C9,16.339844 9.046875,16.671875 9.09375,17 L6.0625,17 C6.03125,16.671875 6,16.335938 6,16 C6,15.664063 6.03125,15.328125 6.0625,15 Z M22.90625,15 L25.9375,15 C25.96875,15.328125 26,15.664063 26,16 C26,16.335938 25.96875,16.671875 25.9375,17 L22.90625,17 C22.953125,16.671875 23,16.339844 23,16 C23,15.660156 22.953125,15.328125 22.90625,15 Z M6.4375,19 L9.6875,19 C10.378906,20.453125 11.546875,21.621094 13,22.3125 L13,25.5625 C9.886719,24.585938 7.414063,22.113281 6.4375,19 Z M22.3125,19 L25.5625,19 C24.585938,22.113281 22.113281,24.585938 19,25.5625 L19,22.3125 C20.453125,21.621094 21.621094,20.453125 22.3125,19 Z M15,22.90625 C15.328125,22.953125 15.660156,23 16,23 C16.339844,23 16.671875,22.953125 17,22.90625 L17,25.9375 C16.671875,25.96875 16.335938,26 16,26 C15.664063,26 15.328125,25.96875 15,25.9375 L15,22.90625 Z" id="icon" fill="url(#linearGradient-1)" fill-rule="nonzero"></path>
    </g>
</svg>