<?xml version="1.0" encoding="UTF-8"?>
<svg width="32px" height="32px" viewBox="0 0 32 32" version="1.1" xmlns="http://www.w3.org/2000/svg" xmlns:xlink="http://www.w3.org/1999/xlink">
    <!-- Generator: Sketch 48.2 (47327) - http://www.bohemiancoding.com/sketch -->
    <title>Icons/website-icon</title>
    <desc>Created with Sketch.</desc>
    <defs></defs>
    <g id="Assets" stroke="none" stroke-width="1" fill="none" fill-rule="evenodd">
        <g id="Icons/website-icon" fill="#FFFFFF" fill-rule="nonzero">
            <path d="M4,5 L4,13 L28,13 L28,5 L4,5 Z M6,7 L26,7 L26,11 L6,11 L6,7 Z M8,8 C7.449219,8 7,8.449219 7,9 C7,9.550781 7.449219,10 8,10 C8.550781,10 9,9.550781 9,9 C9,8.449219 8.550781,8 8,8 Z M11,8 C10.449219,8 10,8.449219 10,9 C10,9.550781 10.449219,10 11,10 C11.550781,10 12,9.550781 12,9 C12,8.449219 11.550781,8 11,8 Z M14,8 C13.449219,8 13,8.449219 13,9 C13,9.550781 13.449219,10 14,10 C14.550781,10 15,9.550781 15,9 C15,8.449219 14.550781,8 14,8 Z M4,14 L4,27 L28,27 L28,14 L26,14 L26,25 L6,25 L6,14 L4,14 Z M8,15 L8,23 L16,23 L16,15 L8,15 Z M18,15 L18,17 L24,17 L24,15 L18,15 Z M10,17 L14,17 L14,21 L10,21 L10,17 Z M18,18 L18,20 L24,20 L24,18 L18,18 Z M18,21 L18,23 L24,23 L24,21 L18,21 Z" id="icon"></path>
        </g>
    </g>
</svg>